<?xml version="1.0" standalone="no"?>
<!DOCTYPE svg PUBLIC "-//W3C//DTD SVG 1.1//EN" "http://www.w3.org/Graphics/SVG/1.1/DTD/svg11.dtd" >
<svg xmlns="http://www.w3.org/2000/svg">
<metadata>Generated by IcoMoon</metadata>
<defs>
<font id="picons" horiz-adv-x="1024">
<font-face units-per-em="1024" ascent="960" descent="-64" />
<missing-glyph horiz-adv-x="1024" />
<glyph unicode="&#x20;" d="" horiz-adv-x="512" />
<glyph unicode="&#xe600;" d="M558.793-22.332c-10.167 0-18.957 7.206-20.915 17.165l-160.606 810.167-105.335-470.502c-2.167-9.749-10.833-16.666-20.813-16.666h-224.269c-11.793 0-21.333 9.54-21.333 21.333s9.54 21.333 21.333 21.333h207.189l123.686 552.478c2.189 9.749 10.833 16.666 20.813 16.666 0.085 0 0.166 0 0.269 0 10.082-0.124 18.688-7.292 20.646-17.186l158.208-798.042 87.791 493.333c1.626 9.271 9.165 16.354 18.5 17.459 9.207 1.084 18.291-4.041 22.042-12.668l90.957-208.708h221.291c11.793 0 21.333-9.54 21.333-21.333s-9.54-21.333-21.333-21.333h-235.251c-8.499 0-16.166 5.043-19.541 12.791l-68.373 156.834-95.292-535.543c-1.792-10.082-10.543-17.502-20.791-17.583-0.081 0.004-0.124 0.004-0.205 0.004z" />
<glyph unicode="&#xe601;" d="M524.877 179.251c-9.916 0-18.522 6.835-20.77 16.499l-86.336 371.187-50.103-189.854c-2.479-9.335-10.935-15.876-20.625-15.876h-303.77c-11.793 0-21.333 9.54-21.333 21.333s9.54 21.333 21.333 21.333h287.334l67.853 257.062c2.5 9.481 11.106 16.521 20.937 15.898 9.813-0.145 18.249-6.959 20.459-16.499l83.686-359.791 43.665 213.773c1.873 9.084 9.374 15.936 18.624 16.939 8.998 0.96 18.044-4.083 21.79-12.54l51.042-114.833h323.29c11.793 0 21.333-9.54 21.333-21.333s-9.54-21.333-21.333-21.333h-337.165c-8.418 0-16.085 4.958-19.499 12.668l-29.623 66.624-49.873-244.207c-2.044-9.792-10.581-16.917-20.625-17.041-0.085-0.009-0.209-0.009-0.29-0.009zM928.708 444.169c-4.834 0-9.707 1.668-13.709 5.001-9.041 7.561-10.21 21.022-2.667 30.042 35.831 42.79 55.582 97.126 55.582 152.96 0 131.477-106.999 238.438-238.498 238.438-77.999 0-152.751-36.979-199.915-98.918-4.002-5.312-10.291-8.418-16.96-8.418v0c-6.665 0-12.958 3.123-16.977 8.418-47.083 61.939-121.792 98.918-199.834 98.918-131.52 0-238.519-106.957-238.519-238.438 0-55.834 19.75-110.144 55.582-152.96 7.561-9.020 6.374-22.481-2.667-30.042-9.020-7.582-22.498-6.332-30.042 2.667-42.27 50.458-65.54 114.522-65.54 180.335 0 154.999 126.144 281.105 281.186 281.105 82.398 0 161.647-35.273 216.853-95.437 55.206 60.169 134.46 95.437 216.832 95.437 155.042 0 281.165-126.106 281.165-281.105 0-65.835-23.249-129.873-65.502-180.335-4.245-5.043-10.287-7.667-16.371-7.667zM507.895-18.082c-0.124 0-0.252 0-0.375 0-18.812 0.085-36.561 8.375-48.73 22.75l-233.792 276.373c-7.603 8.998-6.481 22.46 2.522 30.084 8.977 7.625 22.438 6.46 30.063-2.5l233.771-276.373c4.169-4.915 9.668-7.377 16.542-7.667 6.396 0 12.186 2.624 16.354 7.458l240.209 276.791c7.791 8.832 21.248 9.835 30.127 2.125 8.875-7.748 9.835-21.21 2.125-30.127l-240.209-276.791c-12.25-14.084-29.918-22.123-48.606-22.123z" />
<glyph unicode="&#xe602;" d="M992.499 48.751h-323.375c-6.46 0-12.54 2.918-16.623 7.957-4.041 5.001-5.585 11.584-4.207 17.873l20.501 94.541c2.5 11.499 13.376 18.833 25.374 16.333 11.499-2.5 18.79-13.833 16.29-25.374l-14.874-68.668h270.417l-135.629 621.879-82.377-363.627c-2.624-11.499-13.833-18.876-25.502-16.085-11.499 2.581-18.709 13.999-16.085 25.502l103.582 457.229c2.21 9.771 11.332 17.353 20.877 16.623 10.001-0.043 18.624-7.023 20.749-16.794l161.707-741.521c1.374-6.293-0.166-12.877-4.207-17.916s-10.159-7.953-16.619-7.953zM582.835 96.832c-33.626 0-66.957 10.581-96.252 31.501-9.583 6.874-11.814 20.207-4.958 29.79s20.186 11.75 29.751 4.958c38.959-27.831 85.419-31.377 127.748-9.668 48.29 24.875 78.293 77.043 78.293 136.209 0 68.749-41.707 128.542-101.457 145.331-8.085 2.249-14.084 9.084-15.334 17.417-11.998 81.604-74.5 140.855-148.523 140.855-44.105 0-85.854-21.5-114.522-58.999-33.562-43.874-44.646-102.98-29.666-158.144 2.458-9.084-1.293-18.667-9.271-23.667-55.437-34.709-57.148-101.956-30.626-147.665 20.668-35.627 61.478-63.625 114.001-35.418 10.458 5.542 23.334 1.668 28.894-8.708 5.585-10.377 1.69-23.292-8.687-28.877-74.377-39.957-139.499-2.833-171.106 51.584-34.479 59.375-33.519 145.668 32.124 196.373-12.791 63.543 1.873 130.001 40.439 180.437 36.813 48.145 90.897 75.75 148.416 75.75 91.273 0 168.644-68.25 188.437-164.126 71.002-26.398 119.543-99.311 119.543-182.144 0-75.209-38.874-141.918-101.457-174.127-24.29-12.493-50.125-18.662-75.789-18.662zM830.793-61.833c-11.793 0-21.333 9.54-21.333 21.333v223.71c0 11.793 9.54 21.333 21.333 21.333s21.333-9.54 21.333-21.333v-223.71c0-11.793-9.545-21.333-21.333-21.333zM445.999-61.833c-11.793 0-21.333 9.54-21.333 21.333v470.541c0 11.793 9.54 21.333 21.333 21.333s21.333-9.54 21.333-21.333v-470.541c0-11.793-9.54-21.333-21.333-21.333zM447.561 165.585c-0.977 0-2.001 0.085-2.999 0.209-11.665 1.668-19.772 12.416-18.146 24.085 0.606 4.373 15.689 107.251 78.852 146.001 27.396 16.832 58.897 19.375 93.521 7.377 11.166-3.831 17.084-15.957 13.248-27.085-3.831-11.166-15.876-17.084-27.085-13.248-22.374 7.625-41.126 6.498-57.293-3.375-38.208-23.377-55.543-91.375-58.999-115.627-1.515-10.633-10.637-18.338-21.099-18.338zM447.561 214.127c-8.102 0-15.834 4.625-19.418 12.459-11.311 24.666-36.041 60.915-55.603 64.333-2.355 0.333-8.794 1.459-18.581-8.542-8.252-8.457-21.73-8.542-30.165-0.333-8.418 8.252-8.563 21.751-0.333 30.165 21.103 21.623 42.334 23.292 56.478 20.71 49.25-8.623 83.29-80.457 87.023-88.623 4.877-10.709 0.145-23.334-10.543-28.207-2.876-1.34-5.897-1.963-8.858-1.963zM354.812 661.333h-245.978c-45.252 0-84.228 29.397-97.003 73.148-12.019 41.165 2.603 82.022 38.229 108.689 14.127 63.249 67.063 108.207 129.041 108.207 27.874 0 54.396-9.148 77.231-26.543 46.417 2.436 85.188-21.082 103.479-60.105 54.793-2.876 100.083-48.23 100.083-101.602 0-55.168-48.124-101.794-105.084-101.794zM179.106 908.71c-37.602 0-80.145-27.981-88.666-81.459-0.96-6.020-4.442-11.354-9.587-14.626-25.020-15.957-35.499-40.708-28.062-66.189 6.165-21.124 25.877-42.436 56.043-42.436h245.978c33.835 0 62.417 27.085 62.417 59.123 0 34.146-32.29 62.374-69.833 58.731-9.98-0.794-19.644 5.333-22.562 15.147-9.314 31.249-37.167 49.084-72.521 44.646-6.063-0.708-12.126 1.105-16.73 5.082-16.499 14.374-36.041 21.982-56.478 21.982z" />
<glyph unicode="&#xe603;" d="M35.52 222.165c-3.981 0-8 1.126-11.605 3.46-9.873 6.417-12.689 19.627-6.272 29.5l210.479 324.25c3.665 5.645 9.813 9.229 16.542 9.668 6.212 0.559 13.252-2.334 17.63-7.479l200-235.729c7.625-8.96 6.519-22.417-2.458-30.042-9.020-7.71-22.438-6.541-30.084 2.458l-181.436 213.833-194.876-300.207c-4.087-6.293-10.94-9.711-17.92-9.711zM990.332 238.75c-6.835 0-13.585 3.29-17.707 9.417l-363.831 540.228-203.959-395.273c-5.419-10.458-18.249-14.583-28.749-9.165-10.458 5.419-14.562 18.291-9.165 28.749l220.501 427.29c3.46 6.686 10.21 11.063 17.707 11.499 7.543 0.209 14.75-3.106 18.957-9.374l383.957-570.125c6.583-9.792 4.002-23.040-5.79-29.623-3.669-2.458-7.795-3.622-11.921-3.622zM680.043 547.981c-0.252 0-0.457 0-0.708 0.021-6.127 0.188-11.831 2.999-15.71 7.71l-49.25 59.499-32.998-43.648c-3.959-5.291-10.167-8.418-16.794-8.478-6.498-0.521-12.877 2.935-16.998 8.145l-51.187 65.165c-7.292 9.271-5.666 22.686 3.584 29.956 9.25 7.292 22.647 5.73 29.978-3.584l34.082-43.418 32.585 43.085c3.917 5.21 10.001 8.333 16.542 8.478 5.248-0.269 12.749-2.709 16.875-7.731l51.085-61.709 43.042 45.5c8.085 8.563 21.585 8.917 30.165 0.832 8.542-8.102 8.917-21.602 0.832-30.165l-59.627-63.002c-4.041-4.262-9.664-6.656-15.497-6.656z" />
<glyph unicode="&#xe604;" d="M392.397 513.668c-49.438 0-89.647 40.209-89.647 89.647 0 49.417 40.209 89.626 89.647 89.626 49.417 0 89.626-40.209 89.626-89.626 0-49.442-40.209-89.647-89.626-89.647zM392.397 650.27c-25.894 0-46.98-21.065-46.98-46.959s21.082-46.98 46.98-46.98 46.959 21.082 46.959 46.98-21.065 46.959-46.959 46.959zM564.335 581.564h-41.711c-11.793 0-21.333 9.54-21.333 21.333s9.54 21.333 21.333 21.333h41.707c11.793 0 21.333-9.54 21.333-21.333s-9.54-21.333-21.329-21.333zM262.417 581.564h-41.668c-11.793 0-21.333 9.54-21.333 21.333s9.54 21.333 21.333 21.333h41.668c11.793 0 21.333-9.54 21.333-21.333s-9.54-21.333-21.333-21.333zM392.521 711.667c-11.793 0-21.333 9.54-21.333 21.333v41.707c0 11.793 9.54 21.333 21.333 21.333s21.333-9.54 21.333-21.333v-41.707c0-11.793-9.54-21.333-21.333-21.333zM487.27 676.314c-5.457 0-10.918 2.082-15.083 6.251-8.333 8.333-8.333 21.833 0 30.165l17.459 17.459c8.333 8.333 21.854 8.333 30.187 0 8.29-8.333 8.29-21.833 0-30.165l-17.481-17.459c-4.164-4.169-9.626-6.251-15.083-6.251zM280.333 469.376c-5.457 0-10.918 2.082-15.083 6.251-8.333 8.333-8.333 21.833 0 30.165l17.459 17.459c8.333 8.333 21.833 8.333 30.165 0s8.333-21.833 0-30.165l-17.459-17.459c-4.164-4.169-9.626-6.251-15.083-6.251zM504.73 469.376c-5.457 0-10.918 2.082-15.083 6.251l-17.459 17.459c-8.333 8.333-8.333 21.833 0 30.165s21.833 8.333 30.165 0l17.481-17.459c8.29-8.333 8.29-21.833 0-30.165-4.169-4.169-9.647-6.251-15.104-6.251zM297.792 676.314c-5.457 0-10.918 2.082-15.083 6.251l-17.459 17.455c-8.333 8.333-8.333 21.833 0 30.165s21.833 8.333 30.165 0l17.459-17.455c8.333-8.333 8.333-21.833 0-30.165-4.164-4.169-9.626-6.251-15.083-6.251zM512.043-53.082c0 0 0 0-0.043 0-134.229 0-260.292 52.126-354.957 146.79s-146.79 220.71-146.79 354.935c0 134.208 52.126 260.25 146.79 354.897 94.669 94.669 220.71 146.79 354.918 146.79s260.25-52.126 354.918-146.79c195.708-195.686 195.75-514.125 0.043-709.875-94.673-94.626-220.672-146.748-354.88-146.748zM511.957 907.665c-122.812 0-238.144-47.689-324.749-134.293s-134.293-201.916-134.293-324.727 47.689-238.144 134.293-324.77c86.605-86.583 201.958-134.289 324.791-134.289 0.043 0 0.043 0 0.043 0 122.79 0 238.084 47.667 324.71 134.251 179.042 179.085 179.042 470.481-0.043 649.54-86.583 86.605-201.92 134.289-324.753 134.289zM955.917 243.251c-5.248 0-10.543 1.916-14.626 5.833l-141.585 133.623-115.831-104.542c-8.794-7.834-22.293-7.168-30.127 1.54-7.915 8.751-7.206 22.251 1.54 30.127l130.458 117.751c8.209 7.501 20.877 7.292 28.915-0.333l155.874-147.166c8.585-8.085 8.96-21.585 0.875-30.127-4.16-4.459-9.826-6.707-15.492-6.707zM392.521 409.792c-11.793 0-21.333 9.54-21.333 21.333v41.69c0 11.793 9.54 21.333 21.333 21.333s21.333-9.54 21.333-21.333v-41.69c0-11.793-9.54-21.333-21.333-21.333zM262.396 16.542c-4.356 0-8.751 1.331-12.54 4.083-9.519 6.959-11.627 20.292-4.689 29.833l291.251 399.689c3.917 5.355 10.082 8.606 16.708 8.772 8.29 0.124 12.958-2.769 17.126-7.936l275.29-341.103c7.415-9.207 5.999-22.626-3.166-29.999-9.165-7.415-22.626-5.999-29.999 3.166l-257.835 319.501-274.876-377.25c-4.19-5.713-10.688-8.755-17.271-8.755z" />
<glyph unicode="&#xe605;" d="M282.001-54.541c-3.063 0-6.127 0.666-8.998 2.001-7.522 3.499-12.335 11.042-12.335 19.332v229.623c-127.023 39.168-252.834 186.581-252.834 378.581 0 208.73 158.835 385.084 346.833 385.084h320.875c183.458 0 338.415-175.855 338.415-384 0-208.166-154.957-384-338.415-384h-93.291l-286.498-241.583c-3.921-3.332-8.815-5.039-13.751-5.039zM354.667 917.419c-162.044 0-304.166-160-304.166-342.417 0-179.123 120.188-314.291 236.356-341.5 9.668-2.291 16.478-10.876 16.478-20.791v-200.043l257.374 217.041c3.831 3.251 8.708 5.043 13.751 5.043h101.082c160.333 0 295.748 156.292 295.748 341.333 0 185.020-135.415 341.333-295.748 341.333h-320.875z" />
<glyph unicode="&#xe606;" d="M282.21-54.541c-3.063 0-6.127 0.666-8.998 2.001-7.522 3.499-12.335 11.042-12.335 19.332v229.623c-127.023 39.168-252.834 186.581-252.834 378.581 0 208.73 158.835 385.084 346.833 385.084h320.875c183.458 0 338.415-175.855 338.415-384 0-208.166-154.957-384-338.415-384h-93.291l-286.498-241.583c-3.921-3.332-8.815-5.039-13.751-5.039zM354.876 917.419c-162.044 0-304.166-160-304.166-342.417 0-179.123 120.188-314.291 236.356-341.5 9.668-2.291 16.478-10.876 16.478-20.791v-200.043l257.374 217.041c3.831 3.251 8.708 5.043 13.751 5.043h101.082c160.333 0 295.748 156.292 295.748 341.333 0 185.020-135.415 341.333-295.748 341.333h-320.875zM289.459 489.481c-49.105 0-89.041 40.563-89.041 90.415 0 49.873 39.936 90.436 89.041 90.436s89.041-40.563 89.041-90.436c0-49.852-39.936-90.415-89.041-90.415zM289.459 627.665c-25.562 0-46.374-21.436-46.374-47.77s20.813-47.748 46.374-47.748 46.374 21.419 46.374 47.748-20.813 47.77-46.374 47.77zM501.978 489.481c-49.105 0-89.041 40.563-89.041 90.415 0 49.873 39.936 90.436 89.041 90.436s89.062-40.563 89.062-90.436c0-49.852-39.957-90.415-89.062-90.415zM501.978 627.665c-25.562 0-46.374-21.436-46.374-47.77s20.813-47.748 46.374-47.748 46.396 21.419 46.396 47.748-20.83 47.77-46.396 47.77zM714.5 489.481c-49.084 0-89.041 40.563-89.041 90.415 0 49.873 39.957 90.436 89.041 90.436s89.041-40.563 89.041-90.436c0-49.852-39.957-90.415-89.041-90.415zM714.5 627.665c-25.583 0-46.374-21.436-46.374-47.77s20.791-47.748 46.374-47.748 46.374 21.419 46.374 47.748-20.791 47.77-46.374 47.77z" />
<glyph unicode="&#xe607;" d="M240.252 125.333c-2.731 0-5.5 0.542-8.124 1.626-8 3.29-13.21 11.085-13.21 19.708v170.667c-121.958 29.333-199.731 135.206-199.731 274.667 0 158.541 110.272 282.752 251.063 282.752h238.272c143.979 0 256.772-121.813 256.772-277.333 0-155.499-112.794-277.333-256.772-277.333h-66.146l-186.978-188.459c-4.087-4.083-9.566-6.293-15.147-6.293zM270.251 832.085c-116.855 0-208.397-105.459-208.397-240.085 0-124.292 71.458-217.041 182.063-236.292 10.21-1.749 17.668-10.624 17.668-21.001v-136.252l156.749 157.999c4.002 4.041 9.459 6.293 15.147 6.293h75.042c120.064 0 214.106 103.083 214.106 234.667s-94.042 234.667-214.106 234.667h-238.272zM825.668 41.873c-5.542 0-10.999 2.167-15.083 6.251l-101.333 101.291h-55.834c-57.707 0-114.415 33.417-151.667 89.335-6.541 9.835-3.874 23.040 5.939 29.585 9.69 6.498 23.023 3.917 29.564-5.918 29.333-44.041 72.751-70.332 116.169-70.332h64.666c5.666 0 11.085-2.249 15.083-6.251l71.168-71.125v65.417c0 11.46 9.084 20.877 20.54 21.333 75.665 2.833 142.084 79.876 142.084 164.791 0 91.187-63.748 162.603-145.126 162.603-11.793 0-21.333 9.54-21.333 21.333s9.54 21.333 21.333 21.333c105.293 0 187.793-90.167 187.793-205.269 0-101.082-72.585-190.374-162.624-205.333v-97.707c0-8.623-5.21-16.418-13.167-19.708-2.633-1.088-5.423-1.63-8.171-1.63zM553.873 576.085h-334.519c-11.793 0-21.333 9.54-21.333 21.333s9.54 21.333 21.333 21.333h334.519c11.793 0 21.333-9.54 21.333-21.333s-9.54-21.333-21.333-21.333zM553.873 661.419h-334.519c-11.793 0-21.333 9.54-21.333 21.333s9.54 21.333 21.333 21.333h334.519c11.793 0 21.333-9.54 21.333-21.333s-9.54-21.333-21.333-21.333zM386.603 490.752h-167.249c-11.793 0-21.333 9.54-21.333 21.333s9.54 21.333 21.333 21.333h167.249c11.793 0 21.333-9.54 21.333-21.333s-9.54-21.333-21.333-21.333z" />
<glyph unicode="&#xe608;" d="M282.688 39.249c-2.709 0-5.436 0.499-8.021 1.583-8.102 3.29-13.376 11.166-13.312 19.874l1.353 213.623h-62.374c-102.332 0-185.583 82.833-185.583 184.687 0 60.459 39.603 122.752 99.584 158.187 19.456 140.13 128.666 240.653 263.539 240.653 63.876 0 118.165-21.585 169.958-67.772 107.75 20.147 209.54-47.876 233.502-148.979 118.541 18.581 229.542-71.667 229.542-182.084 0-98.398-91.375-184.687-195.499-184.687h-297.668l-219.644-228.54c-4.109-4.254-9.69-6.545-15.377-6.545zM377.873 815.189c-116.126 0-209.668-89.792-222.438-213.521-0.747-7.125-4.996-13.419-11.349-16.73-51.042-26.603-86.665-78.396-86.665-125.918 0-68.314 54.647-142.020 142.916-142.020h83.831c5.687 0 11.123-2.249 15.125-6.293 4.019-4.041 6.251-9.502 6.208-15.168l-1.148-181.623 188.877 196.54c4.019 4.169 9.562 6.541 15.377 6.541h306.769c81.417 0 152.832 66.377 152.832 142.020 0 67.187-63.206 142.063-153.873 142.063-14.707 0-29.709-2.044-44.54-6.042-5.918-1.69-12.335-0.585-17.54 2.918-5.124 3.477-8.499 9.020-9.25 15.189-10.918 93.5-100.625 156.25-196.501 133.043-7.083-1.728-14.46 0.269-19.665 5.248-45.901 43.499-93.235 63.753-148.966 63.753z" />
<glyph unicode="&#xe609;" d="M255.002 74.581c-67.644 0-122.667 45.751-122.667 101.999s55.023 102.042 122.667 102.042 122.667-45.79 122.667-102.042-55.023-101.999-122.667-101.999zM255.002 235.959c-44.105 0-80-26.624-80-59.375 0-32.708 35.895-59.332 80-59.332s80 26.624 80 59.332c0 32.747-35.895 59.375-80 59.375zM102.665-48.998c-37.585 0-68.169 26.291-68.169 58.581 0 32.333 30.583 58.624 68.169 58.624s68.147-26.291 68.147-58.624c0-32.29-30.562-58.581-68.147-58.581zM102.665 25.54c-14.605 0-25.502-8.418-25.502-15.957 0-7.501 10.897-15.915 25.502-15.915 14.583 0 25.481 8.418 25.481 15.915 0 7.543-10.897 15.957-25.481 15.957zM567.334 282.667c-42.624 0-82.603 12.083-114.189 34.249-52.855-26.167-123.772-19.375-164.979 15.957-133.188 9.54-238.686 104.375-252.228 228.083-13.628 124.646 72.166 242.859 201.229 280.38 15.356 65.771 79.603 101.082 136.478 101.082 34.543 0 65.916-11.665 90.291-33.25 33.229 24.418 73.856 37.687 116.356 37.687 59.998 0 114.581-26.377 148.416-71.083 55.957-1.165 108.749-23.957 145.417-62.959 30.793-32.794 47.667-74.458 48.252-118.562 46.959-28.855 76.625-72.644 82.001-121.873 4.915-44.979-10.709-90.189-44.041-127.334-44.207-49.331-113.707-78.75-185.835-78.75v0c-11.793 0-23.582 0.794-35.29 2.334-33.754-52.668-99.379-85.961-171.878-85.961zM455.040 363.708c4.915 0 9.835-1.707 13.773-5.043 25.417-21.5 60.395-33.331 98.522-33.331 61.709 0 118.626 30.669 141.666 76.335 4.292 8.457 13.5 13.082 23.083 11.332 73.126-14.251 151.71 10.543 196.501 60.523 17.749 19.814 37.956 52.228 33.374 94.229-4.25 38.874-30.208 73.668-71.206 95.458-7.415 3.917-11.793 11.793-11.29 20.147 2.291 37.188-10.624 72.794-36.416 100.228-29.623 31.501-72.917 49.562-118.835 49.562l-5.833-0.085c-7.377-0.457-14.498 3.396-18.581 9.668-25.084 38.481-69.751 61.457-119.501 61.457-38.916 0-75.729-14.106-103.582-39.689-4.335-3.959-10.189-5.956-15.936-5.564-5.854 0.397-11.273 3.209-15.002 7.748-17.481 21.312-43.106 33.062-72.124 33.062-42.522 0-90.833-27.311-96.623-77.939-0.998-8.917-7.479-16.23-16.188-18.334-115.823-27.891-194.261-130.159-182.49-237.888 11.503-105.084 103.876-185.212 219.648-190.583 5.291-0.209 10.291-2.415 14.063-6.165 29.645-29.457 91.273-33.626 131.665-8.375 3.477 2.163 7.394 3.247 11.311 3.247z" />
<glyph unicode="&#xe60a;" d="M661.376 445.333c-5.875-1.165-12.083 2.667-16.128 7.356l-229.538 265.25c-27.75 36.373-36.958 81.353-26.108 124.416 16.563 65.916 76.459 111.979 145.647 111.979 52.002 0 100.582-25.856 128.875-65.395 28.335 39.543 76.915 65.395 128.917 65.395 82.79 0 150.165-66.061 150.165-147.273 0-34.603-12.501-68.228-35.166-94.686l-230.707-259.895c-4.041-4.565-9.873-7.147-15.957-7.147zM535.249 911.667c-49.604 0-92.48-32.794-104.269-79.731-7.667-30.417-1.165-62.165 17.835-87.125l212.77-245.811 214.293 241.438c15.834 18.436 24.666 42.21 24.666 66.624 0 57.69-48.209 104.606-107.499 104.606-49.331 0-95.915-32.939-108.416-76.625-2.581-9.165-10.957-15.479-20.501-15.479v0c-9.54 0-17.916 6.332-20.501 15.501-12.459 43.665-59.042 76.604-108.378 76.604zM684.169 106.752h-383.983c-11.793 0-21.333 9.54-21.333 21.333s9.54 21.333 21.333 21.333h383.979c11.793 0 21.333-9.54 21.333-21.333s-9.54-21.333-21.329-21.333zM684.169 234.752h-383.983c-11.793 0-21.333 9.54-21.333 21.333s9.54 21.333 21.333 21.333h383.979c11.793 0 21.333-9.54 21.333-21.333s-9.54-21.333-21.329-21.333zM470.852 362.752h-170.667c-11.793 0-21.333 9.54-21.333 21.333s9.54 21.333 21.333 21.333h170.667c11.793 0 21.333-9.54 21.333-21.333s-9.54-21.333-21.333-21.333zM800.751-63.415h-623.044c-28.292 0-51.311 22.916-51.311 51.042v794.603c0 28.126 23.023 51.021 51.311 51.021h145.459c11.793 0 21.333-9.54 21.333-21.333s-9.54-21.333-21.333-21.333h-145.459c-4.77 0-8.644-3.75-8.644-8.354v-794.603c0-4.625 3.874-8.375 8.644-8.375h623.040c4.791 0 8.666 3.75 8.666 8.375v480.939c0 11.793 9.54 21.333 21.333 21.333s21.333-9.54 21.333-21.333v-480.939c0.004-28.126-23.036-51.042-51.328-51.042z" />
<glyph unicode="&#xe60b;" d="M425.062 64.085h-381.978c-23.356 0-43.085 20.996-43.085 45.833 0 40.751-0.29 79.415-0.563 116.041-1.835 244.727-3.042 406.417 91.477 505.502 62.31 65.186 147.063 98.249 251.895 98.249 23.484 0 41.19-18.586 41.19-43.251v-117.231c0-24.269-18.999-43.273-43.273-43.273-38.127 0-60.604-14.353-72.875-46.562-9.771-25.626-11.499-57.894-11.793-88.644h168.998c24.418 0 44.271-19.332 44.271-43.085v-337.749c0.004-24.414-20.685-45.828-44.267-45.828zM338.479 786.458c-91.187 0-162.564-27.831-216.708-84.48-82.581-86.562-81.481-233.041-79.667-475.729 0.273-36.706 0.563-75.456 0.563-116.331l381.773-3.166 2.227 340.915-192 0.418c-11.793 0-21.333 9.54-21.333 21.333 0 39.689 0 86.729 14.647 125.167 18.731 49.126 56.666 74.044 112.751 74.044l0.602 117.828c-0.96 0-1.894 0-2.854 0zM979.75 64.085h-381.999c-23.334 0-43.085 20.996-43.085 45.833 0 40.751-0.29 79.415-0.585 116.041-1.792 244.727-2.999 406.417 91.46 505.502 62.374 65.207 147.123 98.249 251.959 98.249 23.458 0 41.165-18.586 41.165-43.251v-117.231c0-23.855-19.418-43.273-43.29-43.273-38.127 0-60.582-14.353-72.875-46.562-9.749-25.626-11.46-57.894-11.75-88.644h168.998c24.418 0 44.25-19.332 44.25-43.085v-337.749c0-24.414-20.668-45.828-44.25-45.828zM893.167 786.458c-91.166 0-162.581-27.831-216.751-84.48-82.543-86.562-81.459-233.020-79.667-475.686 0.294-36.749 0.585-75.499 0.585-116.373l381.79-3.166 2.21 340.915-192 0.418c-11.793 0-21.333 9.54-21.333 21.333 0 39.689 0 86.729 14.626 125.167 18.752 49.126 56.666 74.044 112.751 74.044l0.623 117.828c-0.96 0-1.916 0-2.833 0z" />
<glyph unicode="&#xe60c;" d="M531.793-64.29h-381.295c-59.563 0-108.019 48.457-108.019 107.998v809.502c0 59.541 48.457 107.998 108.019 107.998h381.291c59.541 0 107.998-48.457 107.998-107.998 0-11.793-9.54-21.333-21.333-21.333s-21.333 9.54-21.333 21.333c0 36.019-29.291 65.331-65.331 65.331h-381.291c-36.041 0-65.353-29.312-65.353-65.331v-809.502c0-36.041 29.312-65.331 65.353-65.331h381.291c36.041 0 65.331 29.291 65.331 65.331v255.957c0 11.793 9.54 21.333 21.333 21.333s21.333-9.54 21.333-21.333v-255.957c0.004-59.541-48.452-107.998-107.994-107.998zM341.146 5.082c-31.834 0-57.749 25.916-57.749 57.749s25.916 57.707 57.749 57.707 57.728-25.873 57.728-57.707-25.894-57.749-57.728-57.749zM341.146 77.875c-8.311 0-15.083-6.75-15.083-15.040 0-8.333 6.771-15.083 15.083-15.083s15.061 6.75 15.061 15.083c0 8.29-6.75 15.040-15.061 15.040zM618.876 149.419h-554.688c-11.793 0-21.333 9.54-21.333 21.333v640c0 11.793 9.54 21.333 21.333 21.333h390.498c11.793 0 21.333-9.54 21.333-21.333s-9.54-21.333-21.333-21.333h-369.165v-597.333h533.355c11.793 0 21.333-9.54 21.333-21.333s-9.545-21.333-21.333-21.333zM533.333 209.459c-3.123 0-6.251 0.666-9.207 2.082-7.415 3.541-12.126 11.042-12.126 19.251v148.25c-84.523 27.959-169.647 123.853-169.647 243.477 0 139.085 105.353 252.228 234.854 252.228h212.625c127.582 0 231.377-114.833 231.377-256s-103.791-256-231.377-256h-59.418l-183.667-148.54c-3.874-3.123-8.623-4.749-13.414-4.749zM577.207 832.085c-104.166 0-192.188-95.957-192.188-209.562 0-106.398 79.394-190.020 152.977-206.438 9.754-2.21 16.67-10.837 16.67-20.834v-119.748l154.79 125.167c3.793 3.085 8.542 4.749 13.419 4.749h66.957c102.293 0 188.71 97.69 188.71 213.333s-86.417 213.333-188.71 213.333h-212.625zM853.333 661.419h-298.667c-11.793 0-21.333 9.54-21.333 21.333s9.54 21.333 21.333 21.333h298.667c11.793 0 21.333-9.54 21.333-21.333s-9.54-21.333-21.333-21.333zM682.667 533.419h-128c-11.793 0-21.333 9.54-21.333 21.333s9.54 21.333 21.333 21.333h128c11.793 0 21.333-9.54 21.333-21.333s-9.54-21.333-21.333-21.333z" />
<glyph unicode="&#xe60d;" d="M532.002-64.29h-381.295c-59.563 0-108.019 48.457-108.019 107.998v809.502c0 59.541 48.457 107.998 108.019 107.998h381.291c59.546 0 108.002-48.457 108.002-107.998 0-11.793-9.54-21.333-21.333-21.333s-21.333 9.54-21.333 21.333c0 36.019-29.291 65.331-65.331 65.331h-381.295c-36.041 0-65.353-29.312-65.353-65.331v-809.502c0-36.041 29.312-65.331 65.353-65.331h381.291c36.041 0 65.331 29.291 65.331 65.331v255.957c0 11.793 9.54 21.333 21.333 21.333s21.333-9.54 21.333-21.333v-255.957c0.004-59.541-48.452-107.998-107.994-107.998zM341.355 5.082c-31.834 0-57.749 25.916-57.749 57.749s25.916 57.707 57.749 57.707 57.728-25.873 57.728-57.707-25.894-57.749-57.728-57.749zM341.355 77.875c-8.311 0-15.083-6.75-15.083-15.040 0-8.333 6.771-15.083 15.083-15.083s15.061 6.75 15.061 15.083c0 8.29-6.75 15.040-15.061 15.040zM619.042 149.419h-554.645c-11.793 0-21.333 9.54-21.333 21.333v640c0 11.793 9.54 21.333 21.333 21.333h390.498c11.793 0 21.333-9.54 21.333-21.333s-9.54-21.333-21.333-21.333h-369.165v-597.333h533.312c11.793 0 21.333-9.54 21.333-21.333s-9.54-21.333-21.333-21.333zM533.542 209.459c-3.123 0-6.251 0.666-9.207 2.082-7.415 3.541-12.126 11.042-12.126 19.251v148.25c-84.523 27.959-169.647 123.853-169.647 243.477 0 139.085 105.353 252.228 234.854 252.228h212.625c127.582 0 231.377-114.833 231.377-256s-103.791-256-231.377-256h-59.418l-183.667-148.54c-3.874-3.123-8.623-4.749-13.414-4.749zM577.417 832.085c-104.166 0-192.188-95.957-192.188-209.562 0-106.398 79.394-190.020 152.977-206.438 9.749-2.21 16.666-10.833 16.666-20.834v-119.748l154.79 125.167c3.793 3.085 8.542 4.749 13.419 4.749h66.957c102.293 0 188.71 97.69 188.71 213.333s-86.417 213.333-188.71 213.333h-212.621zM516.71 532.105c-16.269 0-36.855 7.71-51.209 19.187-9.207 7.356-10.709 20.791-3.354 29.978 7.377 9.165 20.834 10.709 29.978 3.354 7.27-5.811 18.79-9.856 24.585-9.856 7.168 0 11.499 3.605 12.041 5.188v0c-0.708 0-4.71 3.085-17.583 6.541-13.73 3.959-49.229 14.187-49.229 47.437 0 26.564 24.563 48.166 54.771 48.166 19.042 0 36.416-8.418 46.417-22.498 6.835-9.604 4.582-22.938-5.001-29.751-9.583-6.793-22.916-4.561-29.751 5.001-1.583 2.21-5.875 4.582-11.665 4.582-7.415 0-11.793-3.895-12.083-5.355 0.085 0.644 3.831-2.398 18.001-6.481 32.29-8.666 48.875-24.623 48.875-47.334-0.004-26.556-24.585-48.158-54.793-48.158zM873.207 532.105c-16.252 0-36.834 7.71-51.209 19.187-9.207 7.356-10.667 20.791-3.332 29.978 7.377 9.186 20.749 10.667 29.999 3.354 7.249-5.811 18.752-9.856 24.542-9.856 7.292 0 11.499 3.584 12.083 5.188-0.043 0-0.043 0-0.043 0-0.708 0-4.71 3.085-17.583 6.541-13.709 3.959-49.207 14.165-49.207 47.437 0 26.564 24.542 48.166 54.75 48.166 19.042 0 36.416-8.418 46.417-22.498 6.835-9.604 4.582-22.938-5.001-29.751-9.54-6.793-22.874-4.561-29.751 5.001-1.583 2.21-5.875 4.582-11.665 4.582-7.543 0-11.793-3.874-12.083-5.355 0.96 0.917 4.25-2.5 18.001-6.481 32.29-8.661 48.875-24.619 48.875-47.326 0-26.564-24.585-48.166-54.793-48.166zM611.874 532.105c-11.793 0-21.333 9.54-21.333 21.333v107.251c0 11.793 9.54 21.333 21.333 21.333s21.333-9.54 21.333-21.333v-107.251c0-11.793-9.54-21.333-21.333-21.333zM695.168 532.105c-11.793 0-21.333 9.54-21.333 21.333v64.666c0.043 4.314-1.207 13.478-5.542 17.856-1.417 1.459-4.083 3.396-10.709 3.396-19.375 0-23.957-20.002-24.666-24-2.082-11.52-12.834-19.418-24.585-17.374-11.541 1.937-19.375 12.71-17.54 24.252 3.29 20.689 21.457 59.793 66.79 59.793 21.124 0 34.21-8.977 41.502-16.499 17.916-18.564 17.502-45.188 17.417-48.166v-63.915c0-11.802-9.545-21.342-21.333-21.342zM778.5 532.105c-11.793 0-21.333 9.54-21.333 21.333v64.666c0.043 4.292-1.25 13.478-5.542 17.873-1.459 1.438-4.126 3.375-10.709 3.375-20.668 0-24.542-22.852-24.666-23.812-1.873-11.644-12.749-19.499-24.457-17.707-11.627 1.856-19.541 12.791-17.707 24.418 3.332 20.689 21.542 59.772 66.833 59.772 21.082 0 34.167-8.96 41.459-16.478 17.916-18.564 17.54-45.188 17.459-48.166v-63.936c-0.004-11.797-9.545-21.338-21.338-21.338z" />
<glyph unicode="&#xe60e;" d="M532.169-64.29h-381.252c-59.563 0-108.019 48.457-108.019 107.998v809.502c0 59.541 48.457 107.998 108.019 107.998h381.248c59.584 0 108.041-48.457 108.041-107.998 0-11.793-9.54-21.333-21.333-21.333s-21.333 9.54-21.333 21.333c0 36.019-29.333 65.331-65.374 65.331h-381.248c-36.041 0-65.353-29.312-65.353-65.331v-809.502c0-36.041 29.312-65.331 65.353-65.331h381.248c36.041 0 65.374 29.291 65.374 65.331v255.957c0 11.793 9.54 21.333 21.333 21.333s21.333-9.54 21.333-21.333v-255.957c0.004-59.541-48.457-107.998-108.036-107.998zM341.542 5.082c-31.834 0-57.728 25.916-57.728 57.749s25.894 57.707 57.728 57.707 57.749-25.873 57.749-57.707-25.916-57.749-57.749-57.749zM341.542 77.875c-8.311 0-15.061-6.75-15.061-15.040 0-8.333 6.75-15.083 15.061-15.083s15.083 6.75 15.083 15.083c0 8.29-6.771 15.040-15.083 15.040zM619.251 149.419h-554.645c-11.793 0-21.333 9.54-21.333 21.333v640c0 11.793 9.54 21.333 21.333 21.333h390.498c11.793 0 21.333-9.54 21.333-21.333s-9.54-21.333-21.333-21.333h-369.165v-597.333h533.312c11.793 0 21.333-9.54 21.333-21.333s-9.545-21.333-21.333-21.333zM533.751 209.459c-3.123 0-6.251 0.666-9.207 2.082-7.415 3.541-12.126 11.042-12.126 19.251v148.25c-84.523 27.959-169.647 123.853-169.647 243.477 0 139.085 105.353 252.228 234.854 252.228h212.625c127.582 0 231.377-114.833 231.377-256s-103.791-256-231.377-256h-59.418l-183.667-148.54c-3.874-3.123-8.623-4.749-13.414-4.749zM577.626 832.085c-104.166 0-192.188-95.957-192.188-209.562 0-106.398 79.394-190.020 152.977-206.438 9.749-2.21 16.666-10.833 16.666-20.834v-119.748l154.79 125.167c3.793 3.085 8.542 4.749 13.419 4.749h66.957c102.293 0 188.71 97.69 188.71 213.333s-86.417 213.333-188.71 213.333h-212.621zM718.127 451.29v0c-37.082 0-79.876 26.022-134.626 81.856-51.541 52.561-113.293 129.331-54.959 188.915 20.25 20.979 28.501 27.627 39.377 27.627 10.709-0.102 12.915-0.124 78.874-68.668 7.377-7.522 10.082-14.396 9.835-21.687-0.418-13.397-10.5-23.437-19.627-31.582 7.582-13.457 29.79-36.271 42.415-43.46 1.084 1.126 2.082 2.125 2.999 3.085 7.71 7.876 15.71 16.043 28.625 16.043 14.874 0 23.791-9.647 43.332-30.75 8.96-9.668 20.958-22.626 37.585-39.415 10.334-10.603 10.543-27.251 0.585-38.020-1.084-1.186-26.291-28.228-42.581-36.48-9.792-4.962-20.501-7.462-31.834-7.462zM567.415 700.749c-2.001-1.958-4.373-4.373-7.206-7.313-11.917-12.169-37.001-37.833 53.79-130.415 55.957-57.084 87.501-69.065 104.124-69.065v0c4.625 0 8.751 0.939 12.582 2.876 3.499 1.771 11.959 8.96 20.416 17.126-11.75 12.105-20.834 21.956-28.041 29.73-4.207 4.54-8.29 8.96-11.627 12.356-2.624-2.667-5.666-5.73-9.335-9.126-1.502-1.374-4.169-3.23-5.956-4.126-4.002-2.022-8.542-3.085-13.376-3.085v0c-30.959 0-76.083 50.189-86.874 75.311-8.333 19.46-1.331 31.061 3.584 36.228 2.21 2.189 4.373 4.126 6.707 6.187 0.623 0.563 1.374 1.229 2.167 1.937-21.039 21.756-33.536 34.214-40.956 41.378zM754.999 603.021c-0.209 0-0.457 0-0.708 0.021-11.75 0.375-21.001 10.227-20.625 22.020 0.499 15.437-5.167 29.897-16 40.708-10.833 10.876-26.5 16.751-40.708 16.021-0.247-0.021-0.499-0.021-0.708-0.021-11.46 0-20.958 9.084-21.333 20.625-0.375 11.772 8.875 21.645 20.625 22.020 27.375 1.25 53.043-9.207 72.29-28.459 19.29-19.273 29.376-44.937 28.501-72.311-0.375-11.52-9.873-20.625-21.333-20.625zM807.292 617.148c-0.166 0-0.29 0-0.457 0-11.793 0.269-21.124 10.022-20.877 21.79 0.585 25.749-9.084 49.873-27.209 67.981s-43.627 27.793-67.917 27.145c-10.918-0.124-21.542 9.084-21.79 20.855-0.252 11.793 9.084 21.542 20.877 21.811 39.292 0.832 72.623-13.269 98.999-39.646 26.415-26.398 40.499-61.585 39.71-99.063-0.256-11.622-9.754-20.873-21.338-20.873z" />
<glyph unicode="&#xe60f;" d="M489.728-64.29h-381.269c-59.563 0-108.019 48.457-108.019 107.998v809.502c0 59.541 48.457 107.998 108.019 107.998h381.269c59.563 0 108.019-48.457 108.019-107.998v-809.502c0.004-59.541-48.457-107.998-108.019-107.998zM108.459 918.541c-36.041 0-65.353-29.312-65.353-65.331v-809.502c0-36.041 29.312-65.331 65.353-65.331h381.269c36.019 0 65.353 29.291 65.353 65.331v809.502c0 36.019-29.333 65.331-65.353 65.331h-381.269zM299.085 5.082c-31.834 0-57.728 25.916-57.728 57.749s25.894 57.707 57.728 57.707 57.749-25.873 57.749-57.707-25.916-57.749-57.749-57.749zM299.085 77.875c-8.311 0-15.061-6.75-15.061-15.040 0-8.333 6.75-15.083 15.061-15.083s15.083 6.75 15.083 15.083c0 8.29-6.771 15.040-15.083 15.040zM576.794 149.419h-554.667c-11.793 0-21.333 9.54-21.333 21.333v640c0 11.793 9.54 21.333 21.333 21.333h554.667c11.793 0 21.333-9.54 21.333-21.333v-640c0-11.793-9.545-21.333-21.333-21.333zM43.46 192.085h512v597.333h-512v-597.333zM709.419 279.957c-5.918 0-11.793 2.458-16 7.206-7.791 8.832-6.959 22.332 1.873 30.127 46.498 41.041 72.085 96.333 72.085 155.729 0 59.418-25.583 114.709-72.085 155.708-8.832 7.791-9.668 21.269-1.873 30.106 7.748 8.875 21.248 9.69 30.127 1.894 55.791-49.229 86.498-115.874 86.498-187.686 0-71.834-30.707-138.5-86.498-187.75-4.087-3.584-9.088-5.333-14.127-5.333zM816.209 196.71c-5.457 0-10.918 2.082-15.083 6.251-8.333 8.29-8.333 21.833 0 30.165 129.749 130.044 129.749 349.751 0 479.77-8.333 8.333-8.333 21.833 0 30.165 8.333 8.29 21.833 8.333 30.165-0.043 148.625-148.877 148.625-391.147 0-540.062-4.169-4.164-9.626-6.246-15.083-6.246z" />
<glyph unicode="&#xe610;" d="M830.626 619.938h-296.751c-11.793 0-21.333 9.54-21.333 21.333s9.54 21.333 21.333 21.333h296.751c11.793 0 21.333-9.54 21.333-21.333s-9.545-21.333-21.333-21.333zM936 149.709h-446.042c-11.793 0-21.333 9.54-21.333 21.333s9.54 21.333 21.333 21.333h446.042c2.125 0 8.585 0 10.044 0.751 1.293 0.917 8.209 8.375 14.626 61.5 14.293 118.417 14.293 310.98 0 429.291-7.748 64.021-14.127 64.021-24.666 64.021h-446.046c-11.793 0-21.333 9.54-21.333 21.333s9.54 21.333 21.333 21.333h446.042c47.125 0 58.377-29.939 66.999-101.564 14.669-121.126 14.669-318.293 0-439.501-8.499-70.417-19.665-99.831-66.999-99.831zM105.438 149.709h-18.21c-47.334 0-58.522 29.419-67.021 99.831-14.626 121.165-14.626 318.31 0 439.501 8.644 71.625 19.874 101.564 67.021 101.564h18.21c11.793 0 21.333-9.54 21.333-21.333s-9.54-21.333-21.333-21.333h-18.21c-10.564 0-16.917 0-24.644-64.021-14.31-118.353-14.31-310.916 0-429.291 6.396-53.124 13.312-60.582 14.626-61.542 1.438-0.708 7.898-0.708 10.022-0.708h18.21c11.793 0 21.333-9.54 21.333-21.333s-9.545-21.333-21.338-21.333zM355.938 63.415h-116.501c-38.605 0-69.999 31.748-69.999 70.793v668.813c0 39.040 31.394 70.793 69.999 70.793h116.501c38.605 0 69.999-31.748 69.999-70.793v-668.813c0-39.040-31.394-70.793-69.999-70.793zM239.437 831.147c-15.061 0-27.332-12.625-27.332-28.126v-668.813c0-15.501 12.271-28.126 27.332-28.126h116.501c15.061 0 27.332 12.625 27.332 28.126v668.813c0 15.501-12.271 28.126-27.332 28.126h-116.501zM574.835 491.917h-40.96c-11.793 0-21.333 9.54-21.333 21.333s9.54 21.333 21.333 21.333h40.96c11.793 0 21.333-9.54 21.333-21.333s-9.545-21.333-21.333-21.333zM574.835 406.583h-40.96c-11.793 0-21.333 9.54-21.333 21.333s9.54 21.333 21.333 21.333h40.96c11.793 0 21.333-9.54 21.333-21.333s-9.545-21.333-21.333-21.333zM574.835 321.25h-40.96c-11.793 0-21.333 9.54-21.333 21.333s9.54 21.333 21.333 21.333h40.96c11.793 0 21.333-9.54 21.333-21.333s-9.545-21.333-21.333-21.333zM702.874 491.917h-40.998c-11.793 0-21.333 9.54-21.333 21.333s9.54 21.333 21.333 21.333h40.998c11.793 0 21.333-9.54 21.333-21.333s-9.54-21.333-21.333-21.333zM702.874 406.583h-40.998c-11.793 0-21.333 9.54-21.333 21.333s9.54 21.333 21.333 21.333h40.998c11.793 0 21.333-9.54 21.333-21.333s-9.54-21.333-21.333-21.333zM702.874 321.25h-40.998c-11.793 0-21.333 9.54-21.333 21.333s9.54 21.333 21.333 21.333h40.998c11.793 0 21.333-9.54 21.333-21.333s-9.54-21.333-21.333-21.333zM830.874 491.917h-40.998c-11.793 0-21.333 9.54-21.333 21.333s9.54 21.333 21.333 21.333h40.998c11.793 0 21.333-9.54 21.333-21.333s-9.54-21.333-21.333-21.333zM830.874 406.583h-40.998c-11.793 0-21.333 9.54-21.333 21.333s9.54 21.333 21.333 21.333h40.998c11.793 0 21.333-9.54 21.333-21.333s-9.54-21.333-21.333-21.333zM830.874 321.25h-40.998c-11.793 0-21.333 9.54-21.333 21.333s9.54 21.333 21.333 21.333h40.998c11.793 0 21.333-9.54 21.333-21.333s-9.54-21.333-21.333-21.333z" />
<glyph unicode="&#xe611;" d="M643.541 405.419h-262.438c-18.769 0-39.77 17.122-39.77 40v221.687c0 20.727 17.481 36.979 39.791 36.979h262.46c24.124 0 39.083-19.191 39.083-36.962v-221.709c0-21.666-17.916-39.996-39.125-39.996zM384 661.419v-216l256 2.624v213.376h-256zM753.417-61.21h-479.603c-33.126 0-60.062 26.709-60.062 59.584v891.627c0 37.564 30.835 68.126 68.727 68.126h43.354c33.937 0 63.189-25.105 68.019-58.415l13.043-67.605h346.522c33.126 0 60.041-26.731 60.041-59.605v-774.127c0-32.875-26.914-59.584-60.041-59.584zM282.479 915.46c-14.374 0-26.061-11.418-26.061-25.459v-891.627c0-9.335 7.812-16.917 17.395-16.917h479.603c9.583 0 17.374 7.582 17.374 16.917v774.127c0 9.335-7.791 16.939-17.374 16.939h-364.147c-10.227 0-19.021 7.249-20.958 17.314l-16.521 85.871c-1.958 13.419-13.060 22.835-25.958 22.835h-43.354zM403.644 277.419h-40.977c-11.793 0-21.333 9.54-21.333 21.333s9.54 21.333 21.333 21.333h40.977c11.793 0 21.333-9.54 21.333-21.333s-9.54-21.333-21.333-21.333zM403.644 192.085h-40.977c-11.793 0-21.333 9.54-21.333 21.333s9.54 21.333 21.333 21.333h40.977c11.793 0 21.333-9.54 21.333-21.333s-9.54-21.333-21.333-21.333zM403.644 106.709h-40.977c-11.793 0-21.333 9.54-21.333 21.333s9.54 21.333 21.333 21.333h40.977c11.793 0 21.333-9.54 21.333-21.333s-9.54-21.333-21.333-21.333zM531.665 277.419h-40.977c-11.793 0-21.333 9.54-21.333 21.333s9.54 21.333 21.333 21.333h40.977c11.793 0 21.333-9.54 21.333-21.333s-9.54-21.333-21.333-21.333zM531.665 192.085h-40.977c-11.793 0-21.333 9.54-21.333 21.333s9.54 21.333 21.333 21.333h40.977c11.793 0 21.333-9.54 21.333-21.333s-9.54-21.333-21.333-21.333zM531.665 106.709h-40.977c-11.793 0-21.333 9.54-21.333 21.333s9.54 21.333 21.333 21.333h40.977c11.793 0 21.333-9.54 21.333-21.333s-9.54-21.333-21.333-21.333zM659.665 277.419h-40.96c-11.793 0-21.333 9.54-21.333 21.333s9.54 21.333 21.333 21.333h40.96c11.793 0 21.333-9.54 21.333-21.333s-9.54-21.333-21.333-21.333zM659.665 192.085h-40.96c-11.793 0-21.333 9.54-21.333 21.333s9.54 21.333 21.333 21.333h40.96c11.793 0 21.333-9.54 21.333-21.333s-9.54-21.333-21.333-21.333zM659.665 106.709h-40.96c-11.793 0-21.333 9.54-21.333 21.333s9.54 21.333 21.333 21.333h40.96c11.793 0 21.333-9.54 21.333-21.333s-9.54-21.333-21.333-21.333z" />
<glyph unicode="&#xe612;" d="M914.79 21.419h-806.332c-11.793 0-21.333 9.54-21.333 21.333v181.333c0 5.248 1.916 10.291 5.419 14.208l295.061 330.918c4.041 4.54 9.835 7.147 15.915 7.147h215.189c6.084 0 11.831-2.581 15.915-7.104l296.085-330.957c3.499-3.874 5.419-8.96 5.419-14.208v-181.333c-0.004-11.797-9.545-21.338-21.338-21.338zM129.792 64.085h763.665v151.834l-284.292 317.773h-196.083l-283.29-317.734v-151.872zM193.229-60.25c-11.793 0-21.333 9.54-21.333 21.333v80.333c0 11.793 9.54 21.333 21.333 21.333s21.333-9.54 21.333-21.333v-80.333c0-11.793-9.54-21.333-21.333-21.333zM829.999-60.25c-11.793 0-21.333 9.54-21.333 21.333v80.333c0 11.793 9.54 21.333 21.333 21.333s21.333-9.54 21.333-21.333v-80.333c0-11.793-9.54-21.333-21.333-21.333zM403.52 533.687c-11.793 0-21.333 9.54-21.333 21.333v43.959c0 11.793 9.54 21.333 21.333 21.333s21.333-9.54 21.333-21.333v-43.959c0-11.793-9.54-21.333-21.333-21.333zM619.332 533.687c-11.793 0-21.333 9.54-21.333 21.333v43.959c0 11.793 9.54 21.333 21.333 21.333s21.333-9.54 21.333-21.333v-43.959c0-11.793-9.54-21.333-21.333-21.333zM511.603 111.334c-90.227 0-163.644 73.417-163.644 163.627 0 90.249 73.417 163.665 163.644 163.665s163.644-73.417 163.644-163.665c0.004-90.21-73.412-163.627-163.644-163.627zM511.603 395.959c-66.709 0-120.977-54.293-120.977-120.998s54.272-120.96 120.977-120.96c66.688 0 120.977 54.251 120.977 120.96s-54.289 120.998-120.977 120.998zM511.603 194.79c-44.207 0-80.166 35.959-80.166 80.166s35.959 80.166 80.166 80.166c44.228 0 80.188-35.959 80.188-80.166s-35.959-80.166-80.188-80.166zM511.603 312.457c-20.689 0-37.5-16.832-37.5-37.5s16.811-37.5 37.5-37.5 37.521 16.832 37.521 37.5-16.832 37.5-37.521 37.5zM683.541 621.773c-21.124 0-38.374 16.311-39.206 37.124 0 0.457-0.832 50.833-1.293 66.564-8.418 8.081-52.501 22.204-131.042 22.204-78.251 0-122.581-13.939-131.814-22.481-0.457-16.043-1.271-65.792-1.271-65.792-0.811-21.291-18.022-37.623-39.206-37.623l-256.021 1.233c-21.167 0.188-38.251 16.521-38.997 37.184-0.043 0.96-3.686 100.958 10.624 142.771 35.75 104.461 178.603 155.209 436.749 155.209l19.772-0.085 19.332 0.085c258.167 0 401.041-50.752 436.71-155.187 14.374-41.813 10.752-141.833 10.709-142.835-0.751-20.625-17.873-36.958-38.959-37.146l-255.876-1.229c0 0.004-0.166 0.004-0.209 0.004zM683.541 664.439v-21.333l0.043 21.333c-0.043 0-0.043 0-0.043 0zM87.189 665.647l249.148-1.186c1.148 69.542 1.165 69.623 2.543 73.728 16.077 47.083 126.434 52.143 173.12 52.143 46.498 0 156.292-5.065 172.335-52.002 1.417-4.041 1.459-4.126 2.581-73.873l249.165 1.186c1.207 38.835-0.585 100.314-8.499 123.52-28.71 83.831-162.082 126.332-396.416 126.332l-19.332-0.085-19.772 0.085c-234.313 0-367.667-42.5-396.356-126.31-7.957-23.228-9.749-84.745-8.516-123.537z" />
<glyph unicode="&#xe613;" d="M168.708 658.125c-73.374 0-133.082 59.686-133.082 133.065s59.708 133.082 133.082 133.082 133.082-59.708 133.082-133.082-59.708-133.065-133.082-133.065zM168.708 881.604c-49.856 0-90.415-40.563-90.415-90.415s40.563-90.398 90.415-90.398 90.415 40.542 90.415 90.398-40.559 90.415-90.415 90.415zM511.625 658.125c-73.374 0-133.082 59.686-133.082 133.065s59.708 133.082 133.082 133.082 133.082-59.708 133.082-133.082-59.708-133.065-133.082-133.065zM511.625 881.604c-49.856 0-90.415-40.563-90.415-90.415s40.563-90.398 90.415-90.398c49.873 0 90.415 40.542 90.415 90.398s-40.538 90.415-90.415 90.415zM854.541 658.125c-73.374 0-133.082 59.686-133.082 133.065s59.708 133.082 133.082 133.082 133.082-59.708 133.082-133.082-59.708-133.065-133.082-133.065zM854.541 881.604c-49.873 0-90.415-40.563-90.415-90.415s40.542-90.398 90.415-90.398 90.415 40.542 90.415 90.398-40.538 90.415-90.415 90.415zM168.708 315.209c-73.374 0-133.082 59.708-133.082 133.065 0 73.374 59.708 133.082 133.082 133.082s133.082-59.708 133.082-133.082c0-73.357-59.708-133.065-133.082-133.065zM168.708 538.688c-49.856 0-90.415-40.563-90.415-90.415s40.563-90.398 90.415-90.398 90.415 40.542 90.415 90.398-40.559 90.415-90.415 90.415zM511.625 315.209c-73.374 0-133.082 59.708-133.082 133.065 0 73.374 59.708 133.082 133.082 133.082s133.082-59.708 133.082-133.082c0.004-73.357-59.708-133.065-133.082-133.065zM511.625 538.688c-49.856 0-90.415-40.563-90.415-90.415s40.563-90.398 90.415-90.398c49.873 0 90.415 40.542 90.415 90.398s-40.538 90.415-90.415 90.415zM854.541 315.209c-73.374 0-133.082 59.708-133.082 133.065 0 73.374 59.708 133.082 133.082 133.082s133.082-59.708 133.082-133.082c0.004-73.357-59.708-133.065-133.082-133.065zM854.541 538.688c-49.873 0-90.415-40.563-90.415-90.415s40.542-90.398 90.415-90.398 90.415 40.542 90.415 90.398-40.538 90.415-90.415 90.415zM168.708-27.708c-73.374 0-133.082 59.708-133.082 133.082s59.708 133.082 133.082 133.082 133.082-59.708 133.082-133.082-59.708-133.082-133.082-133.082zM168.708 195.793c-49.856 0-90.415-40.542-90.415-90.415s40.563-90.415 90.415-90.415 90.415 40.542 90.415 90.415-40.559 90.415-90.415 90.415zM511.625-27.708c-73.374 0-133.082 59.708-133.082 133.082s59.708 133.082 133.082 133.082 133.082-59.708 133.082-133.082-59.708-133.082-133.082-133.082zM511.625 195.793c-49.856 0-90.415-40.542-90.415-90.415s40.563-90.415 90.415-90.415c49.873 0 90.415 40.542 90.415 90.415s-40.538 90.415-90.415 90.415zM854.541-27.708c-73.374 0-133.082 59.708-133.082 133.082s59.708 133.082 133.082 133.082 133.082-59.708 133.082-133.082-59.708-133.082-133.082-133.082zM854.541 195.793c-49.873 0-90.415-40.542-90.415-90.415s40.542-90.415 90.415-90.415 90.415 40.542 90.415 90.415-40.538 90.415-90.415 90.415z" />
<glyph unicode="&#xe614;" d="M712.585-13.376c0 0 0 0-0.043 0-106.79 0-236.523 81.54-408.269 256.708-170.5 173.875-248.96 304.606-246.874 411.375 1.707 89.165 58.999 143.228 109.521 190.938 7.104 6.707 14.106 13.312 20.834 19.917 7.957 7.748 18.334 11.981 29.291 11.981 11.392-0.085 22.144-4.668 29.828-12.565l204.186-208.23c7.731-7.791 12.019-18.291 11.938-29.457-0.064-11.209-4.501-21.709-12.48-29.564l-62.434-61.184c0-2.436 3.52-24.209 35.814-68.25 53.939-73.54 140.228-145.707 174.272-145.668 5.585 3.123 63.292 59.627 63.292 59.627 16.998 15.71 43.375 14.669 58.624-0.832l204.958-207.040c15.748-16.124 16.085-41.502 0.794-57.873l-10.752-11.665c-51.042-55.424-108.958-118.217-202.5-118.217zM216.354 835.166c-5.645-6.852-12.855-13.645-20.147-20.54-46.605-44.002-94.788-89.481-96.166-160.751-1.792-93.248 74.957-217.749 234.688-380.71 160.96-164.126 284.523-243.874 377.813-243.874 74.876-0.043 121.668 50.752 171.166 104.457l10.918 11.831-204.877 205.833c-0.333-1.502-57.25-57.207-61.082-60.749-1.583-1.417-6.541-4.915-8.418-5.833-6.293-3.166-13.833-4.877-22.084-4.877-71.957-0.043-209.604 142.959-242.688 219.895-12.625 29.333-11.895 51.75 2.189 66.581l62.959 61.73-204.271 207.006zM882.291 497.417c-0.209 0-0.457 0-0.708 0.021-11.75 0.375-21.001 10.227-20.625 22.020 2.458 75.085-25.25 145.502-77.999 198.272-52.791 52.791-123.418 79.936-198.293 78.042-0.252-0.021-0.499-0.021-0.708-0.021-11.46 0-20.958 9.105-21.333 20.625-0.375 11.793 8.875 21.645 20.625 22.020 87.748 2.957 168.666-29.269 229.875-90.5 61.21-61.188 93.333-142.814 90.5-229.854-0.375-11.52-9.873-20.625-21.333-20.625zM1026.918 497.417c-0.166 0-0.29 0-0.457 0-11.793 0.269-21.124 10.022-20.877 21.79 2.5 113.873-40.252 220.689-120.375 300.813-80.085 80.102-185.873 123.644-300.791 120.354-11.75-0.811-21.542 9.062-21.79 20.877-0.252 11.772 9.084 21.521 20.877 21.79 125.623 2.249 243.46-44.437 331.874-132.855s135.625-206.293 132.877-331.895c-0.256-11.622-9.758-20.873-21.338-20.873zM737.707 497.417c-0.499 0-0.96 0.021-1.459 0.043-11.75 0.772-20.625 10.935-19.874 22.686 2.334 35.563-10.667 70.31-35.708 95.334-24.96 24.998-59.708 38.144-95.292 35.686-12.791-0.623-21.918 8.145-22.707 19.895-0.751 11.75 8.124 21.918 19.874 22.686 47.543 3.042 94.541-14.374 128.333-48.102 33.707-33.707 51.209-80.478 48.085-128.29-0.751-11.294-10.125-19.938-21.252-19.938z" />
<glyph unicode="&#xe615;" d="M732.416-9.335v0c-106.833 0-236.561 81.583-408.311 256.751-170.5 173.875-248.96 304.563-246.895 411.315 1.728 89.165 58.999 143.249 109.521 190.959 7.104 6.707 14.101 13.312 20.851 19.934 16.252 15.646 43.75 15.189 59.106-0.585l204.207-208.252c7.731-7.791 12.019-18.291 11.938-29.457-0.064-11.209-4.501-21.709-12.48-29.564l-62.438-61.163c0-2.436 3.52-24.209 35.814-68.228 53.918-73.54 140.228-145.749 174.272-145.707 3.499 1.293 24.085 21.001 62.541 58.876 18.543 17.293 44.083 15.415 59.375-0.085l204.958-207.040c15.791-16.043 16.124-41.459 0.794-57.873l-10.752-11.665c-51.085-55.424-108.958-118.217-202.5-118.217zM236.186 839.206c-5.645-6.831-12.851-13.645-20.164-20.54-46.583-44.002-94.771-89.502-96.145-160.751-1.792-93.248 74.957-217.749 234.688-380.668 160.939-164.126 284.561-243.917 377.856-243.917v0c74.876 0 121.626 50.709 171.123 104.457l10.918 11.831-204.915 205.875c-63.083-63.415-65.374-64.585-69.21-66.5-6.541-3.29-14.084-5.001-22.332-5.001-71.915-0.043-209.562 142.959-242.667 219.874-12.625 29.355-11.917 51.772 2.167 66.624l62.959 61.709-204.279 207.006zM979.123 659.251h-381.918c-11.793 0-21.333 9.54-21.333 21.333s9.54 21.333 21.333 21.333h381.918c11.793 0 21.333-9.54 21.333-21.333s-9.54-21.333-21.333-21.333zM788.169 468.292c-11.793 0-21.333 9.54-21.333 21.333v381.918c0 11.793 9.54 21.333 21.333 21.333s21.333-9.54 21.333-21.333v-381.918c0-11.793-9.545-21.333-21.333-21.333z" />
<glyph unicode="&#xe616;" d="M749.043 128.375c-0.043 0-0.043 0-0.043 0-129.916 0-269.397 125.248-376.418 234.415-157.602 160.73-230.063 281.668-228.062 380.604 1.668 82.752 54.519 132.437 101.146 176.29 6.686 6.31 13.291 12.501 19.605 18.709 15.543 15.061 42.022 14.605 56.811-0.563l188.147-191.855c7.437-7.501 11.52-17.583 11.477-28.314-0.043-10.769-4.335-20.855-11.981-28.416l-57.54-56.371c0.521-2.249 5.457-25.69 41.647-71.855 54.916-70.063 124.877-122.398 150.707-122.398 3.166 1.668 27.166 25.148 42.918 40.542l9.583 9.374c20.25 19.772 44.459 20.646 61.001 3.793l188.877-190.75c15.125-15.501 15.458-39.876 0.794-55.625-2.125-2.21-58.044-56.832-60.582-59.166l-3.418-3.166c-39.087-36.625-84.42-55.249-134.669-55.249zM291.584 907.998c-2.961-6.455-9.771-12.873-16.687-19.375-42.479-39.957-86.417-81.267-87.731-146.082-1.728-85.521 68.894-199.979 215.876-349.918 101.167-103.168 231.915-221.585 345.958-221.585h0.043c39.582 0 74.125 14.293 105.54 43.75l3.584 3.375c3.499 3.251 55.582 54.127 58.624 57.207l-187.251 185.165c-0.585-0.606-1.54-1.395-2.667-2.5l-9.583-9.374c-16.124-15.748-40.623-39.748-43.584-42.415-1.374-1.293-5.875-4.501-7.543-5.376-6.541-3.29-13.751-4.915-21.623-4.915-66.833 0-194.458 132.395-225.105 203.605-11.913 27.729-11.145 49.003 2.338 63.211l58.044 56.896-188.233 188.331zM722.709-53.376c-1.626 0-3.251 0.043-4.877 0.085-54.165 1.459-109.21 27.665-147.251 70.127l-312.875 321.037c-4.019 2.918-57.314 42.624-109.167-6.127-19.354-19.209-28.668-41.583-28.689-65.374-0.043-23.834 9.207-46.251 26.044-63.083l110.106-110.123c8.333-8.333 8.333-21.833 0-30.165s-21.833-8.333-30.165 0l-110.106 110.127c-24.917 24.917-38.605 58.044-38.541 93.291 0.043 35.251 13.811 68.292 38.771 93.124 0.085 0.085 3.123 3.042 3.209 3.166 64.29 60.292 137.502 30.707 167.228 6.626l315.354-323.375c31.002-34.543 74.581-55.458 117.21-56.585 23.334-0.751 57.126 4.625 85.79 33.293 85.043 85.082 48.832 170.415 48.457 171.251-4.787 10.79 0.128 23.373 10.88 28.122 10.667 4.834 23.377-0.085 28.126-10.876 2.044-4.582 48.209-113.126-57.293-218.667-30.042-30.042-68.753-45.875-112.209-45.875z" />
<glyph unicode="&#xe617;" d="M838.293-63.915h-653.316c-30.895 0-56.977 25.873-56.977 56.457v178.21c0 11.793 9.54 21.333 21.333 21.333h50.833c11.251 0 20.77 9.749 20.77 21.333s-9.519 21.333-20.77 21.333h-50.833c-11.793 0-21.333 9.54-21.333 21.333v128c0 11.793 9.54 21.333 21.333 21.333h50.833c11.251 0 20.77 9.792 20.77 21.376 0 11.541-9.519 21.291-20.77 21.291h-50.833c-11.793 0-21.333 9.54-21.333 21.333v128c0 11.793 9.54 21.333 21.333 21.333h50.833c11.251 0 20.77 9.771 20.77 21.355 0 11.563-9.519 21.312-20.77 21.312h-50.833c-11.793 0-21.333 9.54-21.333 21.333v221.248c0 30.396 26.082 56.085 56.977 56.085h653.312c31.296 0 57.711-25.69 57.711-56.085v-911.458c0-30.084-26.957-56.457-57.707-56.457zM170.667 149.419v-156.877c0-6.959 7.083-13.79 14.31-13.79h653.312c7.462 0 15.044 6.955 15.044 13.79v911.458c0 6.647-7.582 13.419-15.040 13.419h-653.316c-7.351 0-14.31-6.524-14.31-13.419v-199.915h29.5c34.978 0 63.437-28.71 63.437-63.979 0-35.29-28.459-64.021-63.437-64.021h-29.5v-85.333h29.5c34.978 0 63.437-28.689 63.437-63.957 0-35.29-28.459-64.043-63.437-64.043h-29.5v-85.333h29.5c34.978 0 63.437-28.71 63.437-64s-28.459-64-63.437-64h-29.5zM631.71 223.957c-56.998 0-111.083 27.831-144.687 74.458l-121.711 153.459c-45.312 67.482-42.79 120.772-32.956 153.958 12.48 42.125 43.563 75.708 87.522 94.562 12.791 5.751 31.206 1.041 39.667-11.874l74.167-113.792c8.252-12.604 6.665-29.022-3.831-39.898-19.166-19.665-19.627-32.252-18.21-35.46l3.418-4.169c45.043-59.166 63.168-79.458 70.417-86.374 6.165 2.249 16.666 9.207 23.083 15.582 13.167 13.001 35.874 11.708 47.377-2.167l96.96-115.042c5.875-6.874 8.585-16.166 7.206-25.374-1.374-9.25-6.707-17.417-14.626-22.417-37.38-23.535-75.674-35.452-113.796-35.452zM428.855 657.502c-28.062-14.293-47.543-36.625-55.586-63.774-10.377-35.042-1.417-75.166 25.937-116.019l121.835-153.583c42.249-58.5 120.252-74.334 191.206-34.876l-82.082 97.417c-10.543-8.542-29.457-21.291-48.085-21.291-0.832 0-3.874 0.166-4.71 0.252-10.833 1.207-18.79 2.082-96.23 103.71l-4.582 5.978c-3.354 4.937-22.959 37.542 16.917 82.978l-64.619 99.209z" />
<glyph unicode="&#xe618;" d="M788.625-63.915h-722.624c-11.793 0-21.333 9.54-21.333 21.333v979.874c0 11.793 9.54 21.333 21.333 21.333h851.831c11.793 0 21.333-9.54 21.333-21.333v-254.583c0-11.793-9.54-21.333-21.333-21.333h-107.874v-703.957c0-11.793-9.54-21.333-21.333-21.333zM87.334-21.248h679.957v703.957c0 11.793 9.54 21.333 21.333 21.333h107.874v211.917h-809.165v-937.207zM618.752 106.752h-385.045c-11.793 0-21.333 9.54-21.333 21.333s9.54 21.333 21.333 21.333h385.041c11.793 0 21.333-9.54 21.333-21.333s-9.54-21.333-21.329-21.333zM618.752 234.752h-385.045c-11.793 0-21.333 9.54-21.333 21.333s9.54 21.333 21.333 21.333h385.041c11.793 0 21.333-9.54 21.333-21.333s-9.54-21.333-21.329-21.333zM618.752 362.752h-385.045c-11.793 0-21.333 9.54-21.333 21.333s9.54 21.333 21.333 21.333h385.041c11.793 0 21.333-9.54 21.333-21.333s-9.54-21.333-21.329-21.333zM917.124-63.915h-43.166c-11.793 0-21.333 9.54-21.333 21.333s9.54 21.333 21.333 21.333h21.833v213.333h-21.833c-11.793 0-21.333 9.54-21.333 21.333s9.54 21.333 21.333 21.333h43.166c11.793 0 21.333-9.54 21.333-21.333v-256c0-11.793-9.54-21.333-21.333-21.333zM917.124 277.419h-43.166c-11.793 0-21.333 9.54-21.333 21.333s9.54 21.333 21.333 21.333h21.833v213.333h-21.833c-11.793 0-21.333 9.54-21.333 21.333s9.54 21.333 21.333 21.333h43.166c11.793 0 21.333-9.54 21.333-21.333v-256c0-11.793-9.54-21.333-21.333-21.333zM233.707 532.561c-2.645 0-5.312 0.478-7.915 1.519-10.94 4.378-16.273 16.794-11.895 27.733l85.065 212.877c6.498 16.209 33.126 16.209 39.625 0l85.082-212.877c4.373-10.935-0.96-23.356-11.895-27.729-10.897-4.335-23.377 0.917-27.729 11.895l-65.271 163.311-65.25-163.311c-3.332-8.354-11.354-13.419-19.814-13.419zM376.977 599.812h-116.395c-11.793 0-21.333 9.54-21.333 21.333s9.54 21.333 21.333 21.333h116.395c11.793 0 21.333-9.54 21.333-21.333s-9.54-21.333-21.333-21.333z" />
<glyph unicode="&#xe619;" d="M788.834-63.915h-722.624c-11.793 0-21.333 9.54-21.333 21.333v979.874c0 11.793 9.54 21.333 21.333 21.333h851.831c11.793 0 21.333-9.54 21.333-21.333v-254.583c0-11.793-9.54-21.333-21.333-21.333h-107.874v-703.957c0-11.793-9.545-21.333-21.333-21.333zM87.543-21.248h679.957v703.957c0 11.793 9.54 21.333 21.333 21.333h107.874v211.917h-809.165v-937.207zM618.957 106.752h-385.041c-11.793 0-21.333 9.54-21.333 21.333s9.54 21.333 21.333 21.333h385.041c11.793 0 21.333-9.54 21.333-21.333s-9.54-21.333-21.333-21.333zM618.957 234.752h-385.041c-11.793 0-21.333 9.54-21.333 21.333s9.54 21.333 21.333 21.333h385.041c11.793 0 21.333-9.54 21.333-21.333s-9.54-21.333-21.333-21.333zM917.333-63.915h-43.166c-11.793 0-21.333 9.54-21.333 21.333s9.54 21.333 21.333 21.333h21.833v213.333h-21.833c-11.793 0-21.333 9.54-21.333 21.333s9.54 21.333 21.333 21.333h43.166c11.793 0 21.333-9.54 21.333-21.333v-256c0-11.793-9.54-21.333-21.333-21.333zM917.333 277.419h-43.166c-11.793 0-21.333 9.54-21.333 21.333s9.54 21.333 21.333 21.333h21.833v213.333h-21.833c-11.793 0-21.333 9.54-21.333 21.333s9.54 21.333 21.333 21.333h43.166c11.793 0 21.333-9.54 21.333-21.333v-256c0-11.793-9.54-21.333-21.333-21.333zM608.085 362.752h-360.439c-19.332 0-35.063 15.748-35.063 35.123v48.457c0 14.46 9.041 27.627 22.519 32.811 92.915 35.563 117.542 52.582 123.917 58.479v4.732c-11.332 13.419-20.373 30.042-26.479 48.772-8.414 8.102-13.978 18.918-15.603 30.647-1.626 11.853 0.751 23.582 6.729 33.728v36.791c0 59.686 39.936 96.772 104.209 96.772 65.229 0 104.166-36.169 104.166-96.772v-36.749c5.999-10.189 8.375-21.918 6.75-33.792-1.668-11.729-7.206-22.519-15.625-30.647-6.127-18.731-15.125-35.332-26.458-48.751v-5.564c4.625-3.831 27.499-20.791 123.874-57.626 13.457-5.103 22.541-18.313 22.541-32.832v-48.457c0-19.375-15.706-35.123-35.038-35.123zM255.249 405.419h345.207v35.75c-124.958 48.124-140.416 67.729-145.438 83.665-0.644 2.061-0.977 4.228-0.977 6.396v19.375c0 5.623 2.21 10.999 6.165 15.002 10.564 10.688 18.812 25.771 23.834 43.584 1.353 4.77 4.314 8.917 8.375 11.729 2.227 1.54 3.729 4.002 4.105 6.707 0.269 1.937 0.085 4.855-2.291 7.748-3.145 3.814-4.855 8.606-4.855 13.542v43.375c0 36.915-19.541 54.106-61.5 54.106-40.832 0-61.542-18.21-61.542-54.106v-43.396c0-4.937-1.707-9.728-4.855-13.542-2.351-2.876-2.539-5.79-2.27-7.748 0.375-2.709 1.877-5.146 4.083-6.711 4.045-2.812 7.002-6.938 8.337-11.686 5.065-17.835 13.312-32.896 23.898-43.605 3.959-4.002 6.165-9.374 6.165-15.002v-19.375c0-2.167-0.333-4.335-0.977-6.417-5.022-15.898-20.459-35.477-145.459-83.644v-35.746z" />
<glyph unicode="&#xe61a;" d="M773.833 191.083h-436.143c-20.937 0-37.956 17.126-37.956 38.208v59.29c0 15.667 9.771 29.999 24.311 35.627 119.394 46.165 146.731 67.29 152.896 73.916v9.707c-14.084 16.457-25.229 37.124-32.623 60.561-9.873 9.25-16.418 21.773-18.291 35.396-1.937 13.854 0.96 27.52 8.145 39.292v46.379c0 70.084 46.605 113.604 121.626 113.604 76.126 0 121.583-42.479 121.583-113.604v-46.353c7.206-11.772 10.082-25.459 8.166-39.313-1.873-13.623-8.457-26.167-18.334-35.418-7.415-23.501-18.543-44.169-32.623-60.54v-10.249c5.419-5.918 32-26.624 152.917-73.335 14.583-5.623 24.375-20.002 24.29-35.793v-59.166c-0.004-21.082-17.045-38.208-37.965-38.208zM342.396 233.749h426.731v51.831c-152 58.957-170.709 82.752-176.252 100.459-0.623 2.082-0.96 4.207-0.96 6.374v23.71c0 5.585 2.21 10.957 6.127 14.959 13.291 13.542 23.71 32.687 30.042 55.356 1.331 4.749 4.25 8.875 8.29 11.708 3.75 2.624 6.251 6.835 6.916 11.52 0.457 3.354 0.166 8.375-3.793 13.269-3.123 3.814-4.791 8.563-4.791 13.457v53.065c0 47.731-25.835 70.938-78.916 70.938-52.395 0-78.959-23.876-78.959-70.938v-53.082c0-4.894-1.69-9.647-4.77-13.457-3.106-3.814-4.437-8.521-3.793-13.248 0.644-4.689 3.166-8.875 6.895-11.52 4.019-2.812 6.938-6.959 8.269-11.686 6.332-22.626 16.73-41.792 30.063-55.415 3.917-3.959 6.127-9.335 6.127-14.916v-23.71c0-2.167-0.333-4.292-0.998-6.332-5.5-17.707-24.145-41.502-176.23-100.501v-51.84zM882.876-63.915h-699.106c-30.75 0-55.77 25.041-55.77 55.791v912.393c0 30.771 25.020 55.817 55.77 55.817h699.145c30.754 0 55.753-25.045 55.753-55.817v-912.397c0-30.746-25.041-55.787-55.791-55.787zM183.77 917.419c-7.228 0-13.103-5.897-13.103-13.15v-912.397c0-7.249 5.875-13.124 13.103-13.124h699.106c7.249 0 13.124 5.875 13.124 13.124v912.397c0 7.249-5.875 13.146-13.082 13.146h-699.149zM195.584 64.085h-132.228c-11.793 0-21.333 9.54-21.333 21.333s9.54 21.333 21.333 21.333h132.228c11.793 0 21.333-9.54 21.333-21.333s-9.54-21.333-21.333-21.333zM195.584 192.124h-132.228c-11.793 0-21.333 9.54-21.333 21.333s9.54 21.333 21.333 21.333h132.228c11.793 0 21.333-9.54 21.333-21.333s-9.54-21.333-21.333-21.333zM195.584 320.124h-132.228c-11.793 0-21.333 9.54-21.333 21.333s9.54 21.333 21.333 21.333h132.228c11.793 0 21.333-9.54 21.333-21.333s-9.54-21.333-21.333-21.333zM195.584 448.145h-132.228c-11.793 0-21.333 9.54-21.333 21.333s9.54 21.333 21.333 21.333h132.228c11.793 0 21.333-9.54 21.333-21.333s-9.54-21.333-21.333-21.333zM195.584 576.145h-132.228c-11.793 0-21.333 9.54-21.333 21.333s9.54 21.333 21.333 21.333h132.228c11.793 0 21.333-9.54 21.333-21.333s-9.54-21.333-21.333-21.333zM195.584 704.166h-132.228c-11.793 0-21.333 9.54-21.333 21.333s9.54 21.333 21.333 21.333h132.228c11.793 0 21.333-9.54 21.333-21.333s-9.54-21.333-21.333-21.333zM195.584 832.166h-132.228c-11.793 0-21.333 9.54-21.333 21.333s9.54 21.333 21.333 21.333h132.228c11.793 0 21.333-9.54 21.333-21.333s-9.54-21.333-21.333-21.333z" />
<glyph unicode="&#xe61b;" d="M614.793 151.292v0c-80.124 0-140.561 75.166-196.041 243.665-42.731 129.899-49.502 215.919-21.274 270.733 23.898 46.396 66.978 59.793 101.585 70.562l12.416 3.917c5.687 1.873 11.772 3.874 18.688 3.874 13.956 0 24.998-8.311 29.585-22.251l50.21-152.457c5.623-17.020-3.665-35.46-20.71-41.105l-40.499-13.333c-6.707-27.123 24.875-123.729 45.623-139.311 11.123 3.418 35.375 11.499 36.791 11.998 21.291 6.874 38.75-1.749 44.625-19.541l50.876-152c5.457-16.666-3.042-34.543-19.332-40.751l-8.209-3.166c-25.293-9.749-53.961-20.834-84.335-20.834zM522.377 698.876l-10.624-3.375c-31.189-9.69-60.625-18.854-76.335-49.353-22.020-42.769-13.999-122.79 23.876-237.854 63.206-192.085 119.040-214.332 155.499-214.332v0c22.208 0 45.623 8.96 68.335 17.707l-44.625 133.419c-39.168-13.043-40.623-13.043-44.459-13.043-48.623 0-78.293 104.832-84.877 141.564-2.999 16.772-12.169 67.853 20.292 79.855l36.834 12.126-43.917 133.286zM883.085-63.915h-699.106c-30.75 0-55.77 25.041-55.77 55.791v912.393c0 30.771 25.020 55.812 55.77 55.812h699.106c30.75 0 55.791-25.041 55.791-55.812v-912.397c0-30.746-25.041-55.787-55.791-55.787zM183.979 917.419c-7.228 0-13.103-5.897-13.103-13.146v-912.397c0-7.249 5.875-13.124 13.103-13.124h699.106c7.249 0 13.124 5.875 13.124 13.124v912.393c0 7.249-5.875 13.146-13.124 13.146h-699.106zM195.793 64.085h-132.233c-11.793 0-21.333 9.54-21.333 21.333s9.54 21.333 21.333 21.333h132.228c11.793 0 21.333-9.54 21.333-21.333s-9.54-21.333-21.329-21.333zM195.793 192.124h-132.233c-11.793 0-21.333 9.54-21.333 21.333s9.54 21.333 21.333 21.333h132.228c11.793 0 21.333-9.54 21.333-21.333s-9.54-21.333-21.329-21.333zM195.793 320.124h-132.233c-11.793 0-21.333 9.54-21.333 21.333s9.54 21.333 21.333 21.333h132.228c11.793 0 21.333-9.54 21.333-21.333s-9.54-21.333-21.329-21.333zM195.793 448.145h-132.233c-11.793 0-21.333 9.54-21.333 21.333s9.54 21.333 21.333 21.333h132.228c11.793 0 21.333-9.54 21.333-21.333s-9.54-21.333-21.329-21.333zM195.793 576.145h-132.233c-11.793 0-21.333 9.54-21.333 21.333s9.54 21.333 21.333 21.333h132.228c11.793 0 21.333-9.54 21.333-21.333s-9.54-21.333-21.329-21.333zM195.793 704.166h-132.233c-11.793 0-21.333 9.54-21.333 21.333s9.54 21.333 21.333 21.333h132.228c11.793 0 21.333-9.54 21.333-21.333s-9.54-21.333-21.329-21.333zM195.793 832.166h-132.233c-11.793 0-21.333 9.54-21.333 21.333s9.54 21.333 21.333 21.333h132.228c11.793 0 21.333-9.54 21.333-21.333s-9.54-21.333-21.329-21.333z" />
<glyph unicode="&#xe61c;" d="M630.874 106.752h-238.519c-51.874 0-94.063 42.21-94.063 94.084v322.001c0 51.874 42.189 94.063 94.063 94.063h238.519c51.874 0 94.042-42.189 94.042-94.063v-322.001c0-51.878-42.163-94.084-94.042-94.084zM534.541 149.419h96.333c28.335 0 51.375 23.083 51.375 51.418v322.001c0 28.335-23.040 51.396-51.375 51.396h-238.519c-28.335 0-51.396-23.061-51.396-51.396v-322.001c0-28.335 23.061-51.418 51.396-51.418h142.187zM448.021 406.084c-11.793 0-21.333 9.54-21.333 21.333v168.145c0 11.793 9.54 21.333 21.333 21.333s21.333-9.54 21.333-21.333v-168.145c0-11.793-9.54-21.333-21.333-21.333zM576.043 406.084c-11.793 0-21.333 9.54-21.333 21.333v168.145c0 11.793 9.54 21.333 21.333 21.333s21.333-9.54 21.333-21.333v-168.145c0-11.793-9.545-21.333-21.333-21.333zM448.021 107.375c-11.793 0-21.333 9.54-21.333 21.333v168.166c0 11.793 9.54 21.333 21.333 21.333s21.333-9.54 21.333-21.333v-168.166c0-11.793-9.54-21.333-21.333-21.333zM576.043 107.375c-11.793 0-21.333 9.54-21.333 21.333v168.166c0 11.793 9.54 21.333 21.333 21.333s21.333-9.54 21.333-21.333v-168.166c0-11.793-9.545-21.333-21.333-21.333zM837.709-63.915h-651.145c-31.189 0-58.564 26.539-58.564 56.832v910.75c0 30.583 26.812 56.418 58.564 56.418h502.686c14.251 0 28.668-5.897 39.501-16.145l149.248-140.915c11.46-10.94 18.001-25.485 18.001-40.026v-770.082c0-30.793-26.709-56.832-58.291-56.832zM186.564 917.419c-7.876 0-15.898-6.938-15.898-13.751v-910.75c0-7.002 8.021-14.165 15.898-14.165h651.145c7.748 0 15.625 7.168 15.625 14.165v770.082c0 2.752-1.873 6.396-4.668 9.062l-149.21 140.855c-2.999 2.833-6.793 4.501-10.21 4.501h-502.682z" />
<glyph unicode="&#xe61d;" d="M786.5 492.147c-126.208 0-228.915 102.686-228.915 228.915s102.707 228.937 228.915 228.937 228.915-102.707 228.915-228.937-102.707-228.915-228.915-228.915zM786.5 907.332c-102.707 0-186.249-83.563-186.249-186.27s83.541-186.249 186.249-186.249 186.249 83.541 186.249 186.249-83.541 186.27-186.249 186.27zM714.125-63.748h-578.189c-74.603 0-135.292 62.417-135.292 139.166v578.227c0 74.957 60.689 135.936 135.292 135.936h334.042c11.793 0 21.333-9.54 21.333-21.333s-9.54-21.333-21.333-21.333h-334.042c-51.085 0-92.625-41.835-92.625-93.269v-578.227c0-52.292 42.415-96.499 92.625-96.499h578.189c51.75 0 97.165 45.082 97.165 96.499v330.167c0 11.793 9.54 21.333 21.333 21.333s21.333-9.54 21.333-21.333v-330.167c0-75.418-64.038-139.166-139.831-139.166z" />
<glyph unicode="&#xe61e;" d="M661.21-56.375c-11.793 0-21.333 9.54-21.333 21.333v42.667c0 3.209-1.707 6.084-4.292 7.083-117.21 46.707-203.273 111.083-219.273 164.002-0.606 2.001-0.917 4.083-0.917 6.165v40.457c0 5.457 2.082 10.709 5.854 14.669 23.834 25.165 42.313 60.169 53.419 101.167 1.271 4.71 4.126 8.832 8.064 11.708 9.395 6.793 15.77 17.668 17.459 29.751 1.728 12.501-1.626 24.875-9.459 34.833-2.957 3.793-4.561 8.418-4.561 13.21v90.603c0 90.377-48.644 136.209-144.585 136.209-93.269 0-144.623-48.375-144.623-136.209v-90.645c0-4.791-1.604-9.459-4.582-13.21-7.791-9.916-11.145-22.208-9.417-34.709 1.69-12.126 8.043-23.002 17.438-29.833 3.959-2.833 6.793-6.959 8.064-11.665 11.106-41.041 29.585-76.041 53.436-101.21 3.75-3.959 5.854-9.207 5.854-14.669v-40.457c0-2.082-0.311-4.169-0.917-6.165-15.936-52.834-102.020-117.21-219.29-164.002-2.522-0.998-4.271-3.874-4.271-7.083v-42.667c0-11.793-9.54-21.333-21.333-21.333s-21.333 9.54-21.333 21.333v42.667c0 20.791 12.207 39.125 31.083 46.707 123.708 49.331 182.438 106.001 193.395 134.084v28.668c-24.542 28.083-43.708 64.499-55.898 106.21-15.356 13.585-25.604 32.666-28.501 53.585-2.957 21.457 1.856 42.709 13.602 60.625v83.772c0 112 70.020 178.876 187.29 178.876 119.002 0 187.251-65.186 187.251-178.876v-83.772c11.793-17.958 16.623-39.249 13.623-60.749-2.918-20.877-13.167-39.957-28.501-53.5-12.207-41.668-31.377-78.084-55.898-106.167v-28.668c10.999-28.126 69.73-84.834 193.314-134.042 18.957-7.543 31.168-25.916 31.168-46.75v-42.667c0.004-11.797-9.54-21.338-21.329-21.338zM661.21 347.29c-3.042 0-6.127 0.666-8.998 2.001-7.501 3.499-12.335 11.042-12.335 19.332v122.27h-29.875c-11.793 0-21.333 9.54-21.333 21.333s9.54 21.333 21.333 21.333h51.209c11.793 0 21.333-9.54 21.333-21.333v-97.69l145.749 123.021c2.79 2.334 6.127 3.938 9.707 4.625 80.998 15.71 139.831 93.21 139.831 184.252 0 103.189-75.959 187.145-169.335 187.145h-192.96c-81.835 0-151.876-64.439-166.605-153.229-1.937-11.627-13.022-19.541-24.521-17.562-11.627 1.916-19.499 12.894-17.562 24.521 18.146 109.478 105.894 188.937 208.687 188.937h192.96c116.915 0 212.002-103.083 212.002-229.811 0-109.376-70.665-203.021-168.832-224.96l-176.708-149.146c-3.917-3.328-8.789-5.039-13.747-5.039zM827.29 746.667h-248.166c-11.793 0-21.333 9.54-21.333 21.333s9.54 21.333 21.333 21.333h248.166c11.793 0 21.333-9.54 21.333-21.333s-9.54-21.333-21.333-21.333zM703.206 661.333h-124.083c-11.793 0-21.333 9.54-21.333 21.333s9.54 21.333 21.333 21.333h124.083c11.793 0 21.333-9.54 21.333-21.333s-9.54-21.333-21.333-21.333z" />
<glyph unicode="&#xe61f;" d="M790.665 618.667h-555.52c-11.793 0-21.333 9.54-21.333 21.333s9.545 21.333 21.333 21.333h555.52c11.793 0 21.333-9.54 21.333-21.333s-9.54-21.333-21.333-21.333zM790.665 448h-555.52c-11.793 0-21.333 9.54-21.333 21.333s9.54 21.333 21.333 21.333h555.52c11.793 0 21.333-9.54 21.333-21.333s-9.54-21.333-21.333-21.333zM618.667-17.707c-2.709 0-5.419 0.499-8 1.54-8.085 3.29-13.333 11.085-13.333 19.793v188.373h-576c-11.793 0-21.333 9.54-21.333 21.333v640c0 11.793 9.54 21.333 21.333 21.333h981.333c11.793 0 21.333-9.54 21.333-21.333v-640c0-11.793-9.54-21.333-21.333-21.333h-171.541l-197.124-203.209c-4.126-4.25-9.668-6.498-15.334-6.498zM42.667 234.667h576c11.793 0 21.333-9.54 21.333-21.333v-157.082l166.75 171.917c4.041 4.164 9.583 6.498 15.334 6.498h159.249v597.333h-938.667v-597.333z" />
<glyph unicode="&#xe620;" d="M220.169-8.418c-27.772 0-49.502 23.42-49.502 53.295v104.457h-15.834c-83.938 0-154.833 68.877-154.833 150.374v211.772c0 81.229 70.895 149.854 154.833 149.854h504.917c83.209 0 150.916-67.23 150.916-149.854v-211.772c0-82.914-67.708-150.374-150.916-150.374h-253.961l-150.793-143.415c-10.27-9.459-22.225-14.336-34.829-14.336zM154.833 618.667c-60.791 0-112.166-49.084-112.166-107.187v-211.772c0-58.377 51.375-107.708 112.166-107.708h37.167c11.793 0 21.333-9.54 21.333-21.333v-125.79c-0.043-10.918 8.896-11.042 12.501-7.791l156.727 149.043c3.981 3.789 9.229 5.871 14.707 5.871h262.481c59.708 0 108.25 48.333 108.25 107.708v211.772c0 59.102-48.542 107.187-108.25 107.187h-504.917zM883.123 405.21c-10.709 0-19.917 8.043-21.167 18.957-1.293 11.708 7.125 22.251 18.833 23.582 56.375 6.357 100.544 54.272 100.544 109.086v165.312c0 58.522-54.293 109.854-116.169 109.854h-420.373c-54.895 0-97.126-40.875-102.686-99.396-1.105-11.708-11.482-20.625-23.253-19.209-11.729 1.105-20.335 11.52-19.209 23.249 7.586 79.979 68.625 138.022 145.148 138.022h420.373c86.084 0 158.835-69.854 158.835-152.521v-165.312c0-76.207-60.791-142.75-138.458-151.501-0.794-0.085-1.626-0.124-2.419-0.124zM615.748 320h-423.019c-11.793 0-21.333 9.54-21.333 21.333s9.54 21.333 21.333 21.333h423.023c11.793 0 21.333-9.54 21.333-21.333s-9.545-21.333-21.338-21.333zM615.748 448h-423.019c-11.793 0-21.333 9.54-21.333 21.333s9.54 21.333 21.333 21.333h423.023c11.793 0 21.333-9.54 21.333-21.333s-9.545-21.333-21.338-21.333z" />
<glyph unicode="&#xe621;" d="M829.709-18.082c-5.124 0-10.167 1.835-14.165 5.376l-167.292 148.501h-55.501c-89.105 0-169.020 57.916-203.563 147.584-4.25 10.999 1.229 23.334 12.228 27.584 10.918 4.169 23.334-1.25 27.563-12.25 28.169-73.041 92.437-120.252 163.772-120.252h63.582c5.21 0 10.249-1.916 14.165-5.376l137.873-122.377v109.875c0 10.21 7.206 18.999 17.25 20.958 85.248 16.623 147.123 98.79 147.123 195.29 0 109.397-79.915 198.396-178.125 198.396h-52.54c-11.793 0-21.333 9.54-21.333 21.333s9.54 21.333 21.333 21.333h52.54c121.749 0 220.791-108.147 220.791-241.062 0-110.374-68.126-205.5-164.373-233.041v-140.54c0-8.418-4.915-16-12.582-19.46-2.79-1.25-5.79-1.873-8.747-1.873zM775.748 270.626c-5.5 0-10.957 2.082-15.125 6.293l-108.459 109.248c-8.333 8.375-8.252 21.875 0.085 30.165 8.375 8.333 21.875 8.252 30.165-0.085l108.459-109.248c8.333-8.375 8.252-21.875-0.085-30.165-4.164-4.126-9.621-6.208-15.040-6.208zM612.834 270.626c-5.419 0-10.876 2.044-15.040 6.208-8.333 8.29-8.418 21.79-0.085 30.165l162.918 164.147c8.29 8.311 21.79 8.439 30.165 0.124 8.333-8.311 8.418-21.811 0.085-30.187l-162.918-164.169c-4.169-4.207-9.626-6.289-15.125-6.289zM192.085 197.419c-2.957 0-5.939 0.623-8.751 1.873-7.646 3.46-12.582 11.042-12.582 19.46v151.083c-102.605 28.791-175.356 130.044-175.356 247.625 0 141.065 105.020 255.834 234.103 255.834h215.334c129.084 0 234.082-114.769 234.082-255.834s-104.998-255.834-234.082-255.834h-59.729l-178.854-158.835c-3.981-3.541-9.041-5.372-14.165-5.372zM229.5 830.626c-105.562 0-191.437-95.625-191.437-213.167 0-103.71 66.5-191.957 158.106-209.835 10.022-1.958 17.25-10.752 17.25-20.958v-120.457l149.419 132.71c3.895 3.46 8.939 5.376 14.165 5.376h67.831c105.54 0 191.415 95.625 191.415 213.167s-85.875 213.167-191.415 213.167h-215.334zM288.896 499.938c-5.21 0-10.398 1.873-14.519 5.687-8.623 8.021-9.126 21.521-1.126 30.165l168.73 181.79c8.021 8.666 21.478 9.165 30.165 1.126 8.623-8.021 9.126-21.521 1.126-30.165l-168.73-181.79c-4.207-4.523-9.916-6.814-15.646-6.814zM288.896 499.938c-5.73 0-11.439 2.291-15.646 6.814l-78.353 84.416c-8 8.644-7.501 22.144 1.126 30.165 8.666 8.043 22.144 7.561 30.165-1.126l78.353-84.416c8-8.644 7.501-22.144-1.126-30.165-4.126-3.814-9.31-5.687-14.519-5.687z" />
<glyph unicode="&#xe622;" d="M511.957-52.582c-275.354 0-499.375 224-499.375 499.375 0 275.354 224.021 499.354 499.375 499.354 275.375 0 499.375-224 499.375-499.354 0-275.375-224-499.375-499.375-499.375zM511.957 903.479c-251.831 0-456.708-204.877-456.708-456.687 0-251.831 204.877-456.708 456.708-456.708s456.708 204.877 456.708 456.708c0 251.81-204.873 456.687-456.708 456.687zM511.957 202.543c-134.686 0-244.25 109.585-244.25 244.25s109.564 244.228 244.25 244.228c134.665 0 244.25-109.564 244.25-244.228s-109.581-244.25-244.25-244.25zM511.957 648.354c-111.147 0-201.583-90.415-201.583-201.562 0-111.168 90.436-201.583 201.583-201.583 111.168 0 201.583 90.415 201.583 201.583 0 111.147-90.415 201.562-201.583 201.562zM680.124 571.686c-5.457 0-10.918 2.082-15.083 6.251-8.333 8.333-8.333 21.833 0 30.165l180.582 180.604c8.333 8.333 21.833 8.333 30.165 0s8.333-21.833 0-30.165l-180.582-180.604c-4.164-4.164-9.621-6.251-15.083-6.251zM185.105 76.625c-5.457 0-10.918 2.082-15.083 6.251-8.333 8.333-8.333 21.833 0 30.165l180.604 180.625c8.333 8.333 21.833 8.333 30.165 0s8.333-21.833 0-30.165l-180.604-180.625c-4.169-4.169-9.626-6.251-15.083-6.251zM860.71 98.624c-5.457 0-10.918 2.082-15.083 6.251l-180.582 180.54c-8.333 8.333-8.333 21.833 0 30.165s21.833 8.333 30.165 0l180.582-180.54c8.333-8.333 8.333-21.833 0-30.165-4.169-4.164-9.626-6.251-15.083-6.251zM365.73 593.583c-5.457 0-10.918 2.082-15.083 6.251l-180.625 180.625c-8.333 8.333-8.333 21.833 0 30.165s21.833 8.333 30.165 0l180.625-180.625c8.333-8.333 8.333-21.833 0-30.165-4.169-4.169-9.626-6.251-15.083-6.251z" />
<glyph unicode="&#xe623;" d="M605.999 4.54c-11.46 0-20.915 9.084-21.333 20.582-0.418 11.793 8.832 21.666 20.582 22.084 152.832 5.333 206.208 49.459 211.541 174.835 0.499 11.75 8.252 20.416 22.251 20.416 11.75-0.499 20.915-10.458 20.416-22.251-7.334-171.917-106.334-210.543-252.71-215.667-0.247 0-0.495 0-0.747 0zM577.54-24.794h-60.791c-27.439 0-49.771 22.332-49.771 49.749 0 27.46 22.332 49.792 49.771 49.792h60.791c27.46 0 49.792-22.332 49.792-49.792 0-27.413-22.332-49.749-49.792-49.749zM516.749 32.085c-3.917 0-7.104-3.209-7.104-7.125s3.187-7.083 7.104-7.083h60.791c3.917 0 7.125 3.166 7.125 7.083s-3.209 7.125-7.125 7.125h-60.791zM276.126 192.209h-56.832c-50.334 0-91.294 35.584-91.294 79.334v182.895c0 43.729 40.96 79.313 91.29 79.313h56.832c11.793 0 21.333-9.54 21.333-21.333v-298.876c0.004-11.793-9.54-21.333-21.329-21.333zM219.29 491.085c-26.351 0-48.623-16.794-48.623-36.646v-182.895c0-19.874 22.272-36.668 48.623-36.668h35.499v256.209h-35.499zM803.541 192.209h-56.832c-11.793 0-21.333 9.54-21.333 21.333v298.876c0 11.793 9.54 21.333 21.333 21.333h56.832c50.334 0 91.29-35.584 91.29-79.313v-182.895c0.004-43.75-40.956-79.334-91.29-79.334zM768.043 234.876h35.499c26.377 0 48.623 16.794 48.623 36.668v182.895c0 19.853-22.251 36.646-48.623 36.646h-35.499v-256.209zM788.625 491.085c-11.793 0-21.333 9.54-21.333 21.333v103.415c0 141.022-114.752 255.748-255.77 255.748s-255.748-114.731-255.748-255.748v-103.415c0-11.793-9.54-21.333-21.333-21.333s-21.333 9.54-21.333 21.333v103.415c0 164.54 133.875 298.415 298.415 298.415 164.561 0 298.436-133.875 298.436-298.415v-103.415c0-11.793-9.54-21.333-21.333-21.333z" />
<glyph unicode="&#xe624;" d="M893.666-62.916h-763.251c-30.208 0-54.771 24.794-54.771 55.292v24.209c0 23.040 13.79 43.29 35.123 51.584 163.273 63.168 251.187 130.79 264.311 161.041v35.251c-29.973 31.164-57.557 64.875-72.828 119.539-0.521 1.873-0.794 3.793-0.794 5.751v236.625c0 132.373 72.832 202.355 210.624 202.355 140.25 0 211.375-68.083 211.375-202.355v-236.625c0-1.958-0.252-3.874-0.794-5.751-15.002-53.666-43.085-87.748-73.668-119.543v-35.29c14.835-35.042 115.665-103.543 264.29-160.96 21.043-8.124 35.166-28.877 35.166-51.627v-24.209c0.009-30.498-24.576-55.287-54.784-55.287zM344.124 392.751c13.773-47.040 38.75-75.29 67.541-104.708 3.895-4.002 6.084-9.335 6.084-14.916v-47.71c0-2.167-0.333-4.292-0.96-6.332-20.501-65.707-169.353-143.791-290.603-190.707-4.689-1.792-7.876-6.541-7.876-11.793v-24.209c0-6.959 5.436-12.625 12.105-12.625h763.251c6.665 0 12.126 5.666 12.126 12.625v24.209c0 5.248-3.166 10.001-7.876 11.793-121.207 46.874-270.042 124.915-290.624 190.669-0.623 2.082-0.96 4.207-0.96 6.374v47.71c0 5.585 2.167 10.918 6.084 14.916 30.46 31.125 54.916 58.752 68.373 104.708v233.621c0 110.438-52.041 159.689-168.708 159.689-114.581 0-167.957-50.752-167.957-159.689v-233.626zM554.249 238.084c-11.627 0-21.124 9.293-21.333 20.915-0.209 11.793 9.165 21.542 20.915 21.751 144.794 2.709 188.915 29.709 188.915 115.627 0 11.793 9.54 21.333 21.333 21.333s21.333-9.54 21.333-21.333c0-142.084-114.001-156.126-230.75-158.293-0.162 0-0.286 0-0.414 0zM322.79 368.418h-38.123c-37.645 0-68.271 30.626-68.271 68.292v142.729c0 37.645 30.626 68.271 68.271 68.271h38.127c11.793 0 21.333-9.54 21.333-21.333s-9.54-21.333-21.333-21.333h-38.127c-14.127 0-25.604-11.477-25.604-25.604v-142.729c0-14.127 11.477-25.626 25.604-25.626h38.127c11.793 0 21.333-9.54 21.333-21.333s-9.545-21.333-21.338-21.333zM740.25 368.418h-38.127c-11.793 0-21.333 9.54-21.333 21.333s9.54 21.333 21.333 21.333h38.127c14.127 0 25.626 11.499 25.626 25.626v142.729c0 14.127-11.499 25.604-25.626 25.604h-38.127c-11.793 0-21.333 9.54-21.333 21.333s9.54 21.333 21.333 21.333h38.127c37.666 0 68.292-30.626 68.292-68.271v-142.729c0-37.67-30.626-68.292-68.292-68.292zM738.291 605.043c-11.793 0-21.333 9.54-21.333 21.333v66.517c0 112.939-91.874 204.813-204.791 204.813-112.939 0-204.813-91.874-204.813-204.813v-66.522c0-11.793-9.54-21.333-21.333-21.333s-21.333 9.54-21.333 21.333v66.522c0 136.457 111.023 247.479 247.479 247.479s247.458-111.023 247.458-247.479v-66.522c0-11.789-9.54-21.329-21.333-21.329zM519.915 203.831c-30.686 0-55.646 24.96-55.646 55.667s24.96 55.667 55.646 55.667c30.707 0 55.667-24.96 55.667-55.667s-24.956-55.667-55.667-55.667zM519.915 272.499c-7.168 0-12.979-5.833-12.979-13.001s5.811-13.001 12.979-13.001 13.001 5.833 13.001 13.001-5.833 13.001-13.001 13.001z" />
<glyph unicode="&#xe625;" d="M920.457 159.206c-1.958 0-3.917 0.252-5.918 0.832-11.29 3.251-17.835 15.083-14.583 26.415 19.627 68.207-19.917 139.665-88.166 159.292l-104.708 30.127c-43.831 16.666-57.041 43.708-60.71 63.543-13.709 74.436 83.332 170.5 125.709 208.375 35.499 35.814 49.459 87.77 36.373 138.103-13.082 50.227-50.581 88.751-100.335 103.061-53.001 15.104-107.123 0.457-145.126-39.356-38.165-40.021-50.415-94.938-32.794-146.918 16.917-64.875 37.542-178.645-9.25-228.271-13.602-14.396-38.916-29.709-82.812-21.103l-106.581 30.583c-33.126 9.562-67.853 5.564-97.894-11.063-30.084-16.644-51.895-43.998-61.397-77.082-3.251-11.29-15.023-18.082-26.398-14.583-11.332 3.251-17.856 15.083-14.605 26.415 26.146 90.812 121.25 143.458 212.083 117.312l104.811-30.144c28.207-5.457 38.396 5.355 41.728 8.939 27.729 29.397 17.916 115.772-0.521 186.79-22.063 64.794-5.854 137.626 42.752 188.582 49.165 51.605 119.249 70.583 187.793 50.897 64.375-18.522 112.917-68.356 129.835-133.312 16.917-65.084-1.126-132.292-48.333-179.814-75.627-67.644-119.667-133.897-113.084-169.668 0.917-4.915 3.708-19.917 32.29-30.874l103.002-29.542c90.833-26.125 143.458-121.293 117.333-212.126-2.701-9.327-11.2-15.411-20.493-15.411zM853.457-64h-725.333c-11.793 0-21.333 9.54-21.333 21.333s9.54 21.333 21.333 21.333h725.333c11.793 0 21.333-9.54 21.333-21.333s-9.54-21.333-21.333-21.333zM920.457 159.206c-1.958 0-3.917 0.252-5.918 0.832l-768.666 221.129c-11.332 3.251-17.856 15.083-14.605 26.415 3.251 11.29 15.125 17.958 26.398 14.583l768.708-221.124c11.29-3.251 17.835-15.083 14.583-26.415-2.709-9.335-11.209-15.42-20.501-15.42zM859.627 98.581c-1.958 0-3.917 0.252-5.875 0.832l-688.542 197.922c-11.311 3.251-17.856 15.083-14.605 26.377l20.77 72.29c1.562 5.457 5.21 10.044 10.167 12.791 4.958 2.709 10.731 3.418 16.23 1.835l688.521-197.956c5.457-1.54 10.044-5.21 12.791-10.167s3.418-10.79 1.835-16.252l-20.791-72.252c-2.709-9.335-11.213-15.42-20.501-15.42zM197.5 332.459l647.543-186.167 8.96 31.249-647.522 186.167-8.981-31.249z" />
<glyph unicode="&#xe626;" d="M870.46 5.457c-14.874 0-29.833 4.958-43.251 14.916-2.957 2.167-13.376 8.875-22.293 1.707-25.626-20.501-60.834-21.585-87.415-2.624-8.542 6.165-18.415 6.251-27.042 0-25.459-18.167-58.5-18.125-83.917 0-8.542 6.165-18.415 6.251-27.042 0-25.335-18.167-58.291-18.21-83.895 0-8.585 6.165-18.436 6.165-27.021 0-25.417-18.125-58.398-18.21-83.917 0-8.623 6.165-18.436 6.165-27.021 0-26.645-18.957-61.73-18.044-87.394 2.624-8.896 7.125-19.332 0.499-22.31-1.749-20.937-15.501-46.438-18.79-70.106-9.165-25.583 10.5-44.271 35.042-48.794 64.085-1.813 11.665 6.165 22.583 17.813 24.375 11.75 1.626 22.562-6.208 24.354-17.792 2.227-14.374 10.978-26.334 22.814-31.168 5.542-2.291 16.687-4.834 28.459 3.917 23.71 17.707 53.001 18.044 74.479 0.751 10.876-8.708 24.623-9.165 35.895-1.126 23.249 16.585 53.333 16.585 76.582 0 10.581-7.582 23.77-7.582 34.355 0 23.249 16.585 53.333 16.585 76.582 0 10.543-7.543 23.71-7.582 34.334-0.043 23.334 16.666 53.333 16.623 76.582 0.043 10.667-7.582 23.876-7.543 34.415 0 23.168 16.542 53.21 16.623 76.54 0 11.332-8.085 25.126-7.582 35.959 1.165 21.376 17.165 50.624 16.875 74.458-0.708 16.794-12.54 30.669-4.169 37.5 1.835 13.124 11.708 21.291 34.581 8.166 57.084-14.498 24.917-14.793 54.374-0.751 76.791 8.832 14.084 9.293 33.374 1.126 47.957-13.623 24.457-13.623 54.874 0 79.377 7.834 13.999 7.791 32.043 0 46.042-5.751 10.291-2.044 23.292 8.209 29.043 10.21 5.709 23.249 2.044 29.043-8.209 14.874-26.667 14.874-61.082 0-87.667-6.498-11.627-6.498-26.125 0-37.79 15.791-28.25 14.916-64.124-2.249-91.375-5.5-8.832-4.915-21.666 1.502-32.708 24.043-41.207 9.835-86.75-16.623-110.374-14.298-12.753-31.13-19.213-48.128-19.213zM149.248 444.791c-11.793 0-21.333 9.562-21.333 21.355 0 17.148 4.668 33.604 13.478 47.625 5.521 8.794 4.937 21.602-1.481 32.644-10.244 17.587-14.101 38.835-10.871 59.772 4.523 29.082 23.228 53.645 48.832 64.124 23.667 9.668 49.148 6.315 70.025-9.186 2.978-2.21 13.355-8.875 22.353-1.728 25.668 20.54 60.791 21.585 87.394 2.603 8.585-6.084 18.419-6.101 26.999 0.021 25.54 18.189 58.436 18.189 83.938-0.021 8.585-6.084 18.415-6.106 26.999 0.021 25.502 18.167 58.377 18.189 83.959-0.021 9.583-6.835 11.793-20.169 4.958-29.751-6.874-9.626-20.126-11.814-29.79-4.958-10.581 7.522-23.71 7.561-34.334 0-23.249-16.623-53.333-16.606-76.582-0.021-10.581 7.582-23.77 7.561-34.355 0.021-23.249-16.623-53.333-16.606-76.582-0.021-11.251 8.021-24.977 7.582-35.917-1.148-21.461-17.182-50.628-16.913-74.5 0.755-11.793 8.789-22.895 6.208-28.395 3.959-11.857-4.855-20.608-16.794-22.835-31.168-1.749-11.311 0.23-22.605 5.585-31.791 14.541-24.96 14.814-54.396 0.73-76.813-4.54-7.206-6.938-15.834-6.938-24.917-0.004-11.793-9.545-21.355-21.338-21.355zM234.79 489.25c-11.793 0-21.333 9.54-21.333 21.333v44.083c0 11.793 9.54 21.333 21.333 21.333h295.334c11.793 0 21.333-9.54 21.333-21.333s-9.54-21.333-21.333-21.333h-274.001v-22.75c0-11.793-9.54-21.333-21.333-21.333zM832.124 106.667h-294.127c-11.793 0-21.333 9.54-21.333 21.333s9.54 21.333 21.333 21.333h272.794v192c0 11.793 9.54 21.333 21.333 21.333s21.333-9.54 21.333-21.333v-213.333c0-11.793-9.54-21.333-21.333-21.333zM810.458 473.728c-70.583 0-128 58.624-128 130.667s57.417 130.667 128 130.667 128-58.624 128-130.667-57.417-130.667-128-130.667zM810.458 692.395c-47.040 0-85.333-39.479-85.333-88s38.293-88 85.333-88 85.333 39.479 85.333 88-38.289 88-85.333 88zM810.458 398.293c-111.168 0-201.583 92.459-201.583 206.106s90.415 206.106 201.583 206.106 201.583-92.459 201.583-206.106-90.415-206.106-201.583-206.106zM810.458 767.834c-87.625 0-158.916-73.314-158.916-163.439s71.292-163.439 158.916-163.439 158.916 73.314 158.916 163.439-71.292 163.439-158.916 163.439zM399.625 335.415c-25.792 0-50.001 10.249-68.186 28.877-20.186 20.749-55.147 20.71-75.273 0.043-36.373-37.333-100.002-37.291-136.375-0.043-20.169 20.749-55.125 20.749-75.29 0-8.23-8.375-21.751-8.623-30.165-0.333-8.439 8.209-8.606 21.709-0.375 30.165 36.373 37.248 100.002 37.248 136.375 0 20.169-20.749 55.125-20.749 75.29 0 36.335 37.21 100.019 37.291 136.354-0.043 20.169-20.668 55.125-20.71 75.29 0.043 8.252 8.375 21.773 8.623 30.165 0.333 8.439-8.209 8.606-21.709 0.375-30.165-18.185-18.624-42.394-28.877-68.186-28.877zM399.625 232.542c-25.792 0-50.001 10.249-68.186 28.877-20.186 20.791-55.147 20.71-75.273 0.043-36.373-37.333-100.002-37.291-136.375-0.043-20.169 20.749-55.125 20.749-75.29 0-8.23-8.418-21.751-8.666-30.165-0.333-8.439 8.209-8.606 21.709-0.375 30.165 36.373 37.248 100.002 37.248 136.375 0 20.169-20.749 55.125-20.749 75.29 0 36.335 37.21 100.019 37.291 136.354-0.043 20.169-20.668 55.125-20.71 75.29 0.043 8.252 8.333 21.773 8.585 30.165 0.333 8.439-8.209 8.606-21.709 0.375-30.165-18.185-18.628-42.394-28.877-68.186-28.877zM399.625 129.668c-25.771 0-50.001 10.291-68.169 28.877-20.25 20.791-55.168 20.71-75.29 0.043-36.373-37.248-100.019-37.21-136.354-0.043-20.207 20.749-55.147 20.749-75.311 0-8.23-8.418-21.751-8.666-30.165-0.333-8.439 8.209-8.606 21.709-0.375 30.165 36.373 37.248 100.002 37.248 136.375 0 20.169-20.668 55.104-20.668 75.311 0 36.292 37.21 100.002 37.291 136.333-0.043 20.169-20.582 55.104-20.625 75.311 0.043 8.23 8.375 21.709 8.623 30.165 0.333 8.418-8.209 8.585-21.751 0.333-30.165-18.163-18.586-42.394-28.877-68.164-28.877z" />
<glyph unicode="&#xe627;" d="M683.46 347.123c-11.793 0-21.333 9.54-21.333 21.333v131.895c0.085 1.856 3.123 81.69-52.877 123.251-49.207 36.54-129.771 35.396-239.313-3.29-11.102-3.959-23.313 1.873-27.209 13.001-3.938 11.102 1.877 23.292 13.001 27.209 123.998 43.917 218.022 42.918 279.313-2.935 74.21-55.415 69.956-154.167 69.709-158.332l0.043-130.79c0-11.797-9.545-21.342-21.333-21.342zM513.126-52.207c-277.833 0-503.876 224.333-503.876 500.041 0 275.729 226.044 500.062 503.876 500.062 256.542 0 471.791-190.519 500.668-443.187 8.875-92.207-15.458-177.207-66.709-233.626-38.498-42.377-88.96-64.751-145.958-64.751-42.581 0-76.54 13.457-100.877 39.957-13.999 15.249-22.959 33.041-28.668 50.291-46.541-53.001-133.167-89.749-205.564-90.249-0.542 0-1.084 0-1.604 0-90.479 0-150.208 52.791-159.915 141.5-5.585 51.166 8.23 91.209 41.062 119.083 97.604 82.752 333.687 17.958 343.646 15.168 11.332-3.166 17.958-14.938 14.793-26.291-3.123-11.332-14.707-18.082-26.291-14.793-62.084 17.331-237.875 49.937-304.563-6.626-21.666-18.415-30.251-45.167-26.227-81.873 9.417-86.165 68.373-103.040 118.814-103.501 89.894 0.623 190.895 63.040 196.48 121.502 1.126 11.665 10.667 20.877 23.125 19.166 11.665-0.998 20.335-11.29 19.375-22.959-0.043-0.585-4.207-57.749 27.123-91.708 16.124-17.502 38.793-26.001 69.291-26.001 44.668 0 84.207 17.54 114.377 50.79 42.543 46.835 63.415 121.749 55.834 200.457-26.334 230.707-223.377 404.979-458.21 404.979-254.31 0-461.21-205.188-461.21-457.395s206.895-457.374 461.21-457.374c98.833 0 193.084 30.541 272.542 88.333 9.459 6.916 22.835 4.877 29.79-4.71 6.916-9.54 4.834-22.874-4.71-29.79-86.788-63.121-189.705-96.495-297.621-96.495z" />
<glyph unicode="&#xe628;" d="M859.627 405.333h-141.623c-19.17 0-35.337 15.458-35.337 33.749v190.336c0 17.894 15.501 31.915 35.332 31.915h141.623c20.42 0 36.378-14.020 36.378-31.915v-190.332c0-18.295-16.666-33.754-36.373-33.754zM725.333 448h128v170.667h-128v-170.667zM446.98 234.667h-294.541c-11.793 0-21.333 9.54-21.333 21.333s9.54 21.333 21.333 21.333h294.541c11.793 0 21.333-9.54 21.333-21.333s-9.545-21.333-21.333-21.333zM446.98 362.667h-294.541c-11.793 0-21.333 9.54-21.333 21.333s9.54 21.333 21.333 21.333h294.541c11.793 0 21.333-9.54 21.333-21.333s-9.545-21.333-21.333-21.333zM278.665 490.667h-126.225c-11.793 0-21.333 9.54-21.333 21.333s9.54 21.333 21.333 21.333h126.229c11.793 0 21.333-9.54 21.333-21.333s-9.545-21.333-21.338-21.333zM1002.667 106.667h-981.333c-11.793 0-21.333 9.54-21.333 21.333v640c0 11.793 9.54 21.333 21.333 21.333h981.333c11.793 0 21.333-9.54 21.333-21.333v-640c0-11.793-9.54-21.333-21.333-21.333zM42.667 149.333h938.667v597.333h-938.667v-597.333z" />
<glyph unicode="&#xe629;" d="M551.667 197.457c-12.834 0-24.875 5.001-33.958 14.084l-247.437 247.437c-18.731 18.731-18.731 49.207-0.021 67.959l415.377 415.377c18.167 18.167 49.835 18.146 68.002 0.021l247.415-247.437c18.709-18.752 18.709-49.229 0-67.959l-415.377-415.394c-9.126-9.088-21.167-14.089-34.001-14.089zM700.71 927.228l15.083-15.083-415.356-415.356c-2.103-2.103-2.103-5.542 0-7.646l251.23-249.020c1.041 0 2.543 0.29 3.874 1.626l415.334 415.334c2.082 2.103 2.082 5.542 0 7.667l-247.415 247.394-22.75 15.083zM277.773 474.189c-9.749 0-18.543 6.707-20.791 16.623-2.603 11.499 4.604 22.916 16.102 25.519l345.873 78.293 77.291 344.853c2.624 11.477 13.956 18.645 25.502 16.145 11.499-2.564 18.709-13.978 16.166-25.481l-80.252-358.020c-1.835-8.043-8.085-14.31-16.124-16.145l-359.040-81.271c-1.583-0.35-3.166-0.516-4.727-0.516zM25.707 143.501c-5.457 0-10.918 2.082-15.083 6.251-8.333 8.333-8.333 21.833 0 30.165l209.062 209.084c8.333 8.333 21.833 8.333 30.165 0s8.333-21.833 0-30.165l-209.062-209.084c-4.164-4.169-9.621-6.251-15.083-6.251zM182.417 124.459c-5.457 0-10.918 2.082-15.083 6.251-8.333 8.333-8.333 21.833 0 30.165l140.25 140.25c8.333 8.333 21.833 8.333 30.165 0s8.333-21.833 0-30.165l-140.25-140.25c-4.169-4.169-9.626-6.251-15.083-6.251zM340.416 106.709c-5.457 0-10.918 2.082-15.083 6.251-8.333 8.333-8.333 21.833 0 30.165l70.127 70.127c8.333 8.333 21.833 8.333 30.165 0s8.333-21.833 0-30.165l-70.127-70.127c-4.164-4.169-9.626-6.251-15.083-6.251z" />
<glyph unicode="&#xe62a;" d="M966.793-21.333h-907.729c-32.021 0-59.063 24.794-59.063 54.127v542.519c0 16.542 9.271 33.084 24.811 44.25l455.936 326.562c18.935 13.645 46.127 13.623 65.126-0.021l454.374-326.519c14.878-10.773 23.753-27.315 23.753-44.271v-543.104c0-25.877-23.002-53.542-57.207-53.542zM513.293 913.894c-2.812 0-5.457-0.832-7.667-2.415l-455.936-326.562c-4.834-3.482-7.023-7.71-7.023-9.604v-542.519c0-5.001 7.957-11.46 16.397-11.46h907.729c10.082 0 14.541 7.876 14.541 10.876v543.104c0 3.166-2.415 7.040-6.042 9.647l-454.332 326.498c-2.21 1.604-4.834 2.436-7.667 2.436zM512.96 285.248c-3.477 0-6.959 0.832-10.103 2.543l-491.981 264.917c-10.377 5.602-14.272 18.543-8.687 28.894 5.559 10.398 18.581 14.229 28.894 8.691l481.835-259.46 477.581 259.418c10.21 5.585 23.292 1.813 28.915-8.563 5.623-10.355 1.792-23.313-8.585-28.937l-487.71-264.917c-3.162-1.707-6.66-2.586-10.159-2.586z" />
<glyph unicode="&#xe62b;" d="M812.834 116.582c-2.21 0-7.206 0.751-9.293 1.417l-775.501 242.125c-12.105 3.874-20.561 14.46-21.709 26.999-1.020 13.001 5.687 24.917 17.041 30.583l952.171 486.916c10.044 5.269 23.915 4.169 33.374-3.209 9.54-7.625 13.833-20.019 11.123-31.731l-176.917-729.31c-1.958-8.209-7.377-15.415-14.835-19.708-4.911-2.709-10.163-4.083-15.454-4.083zM67.686 392.457l736.853-230.084 168.085 692.834-904.939-462.75zM446.959-55.377c-4.169 0-8.269 1.207-11.75 3.418-6.793 3.627-14.31 11.042-13.585 26.667l-0.085 281.502c0 11.793 9.54 21.333 21.333 21.333v0c11.772 0 21.333-9.54 21.333-21.333l0.102-234.624 133.146 188.625c6.75 9.707 20.169 11.959 29.709 5.124 9.626-6.793 11.917-20.083 5.124-29.709l-160.375-227.251c-7.578-11.874-18.91-13.751-24.951-13.751zM442.876 234.876c-5.082 0-10.167 1.792-14.229 5.457-8.794 7.834-9.519 21.333-1.668 30.127l348.855 389.188c7.915 8.794 21.376 9.481 30.127 1.668 8.751-7.876 9.502-21.355 1.626-30.127l-348.813-389.231c-4.233-4.71-10.044-7.083-15.898-7.083z" />
<glyph unicode="&#xe62c;" d="M1002.667-64h-981.333c-11.793 0-21.333 9.54-21.333 21.333v555.251c0 11.793 9.54 21.333 21.333 21.333h213.333c11.793 0 21.333-9.54 21.333-21.333s-9.54-21.333-21.333-21.333h-192v-512.585h938.667v512.521l-192-0.521c-11.75 0-21.291 9.519-21.333 21.269-0.043 11.793 9.502 21.355 21.291 21.397l213.376 0.585c5.666 0 11.085-2.227 15.083-6.229s6.251-9.438 6.251-15.104v-555.251c0-11.793-9.54-21.333-21.333-21.333zM789.333 364.041c-11.793 0-21.333 9.54-21.333 21.333v301.478l-101.333 102.481h-408.021l-2.645-403.959c0-11.793-9.54-21.333-21.333-21.333s-21.333 9.54-21.333 21.333v402.543c0 25.126 19.477 44.083 45.312 44.083h405.897c12.834 0 23.957-4.271 32.166-12.335l101.5-100.689c8.252-8.205 12.459-19.017 12.459-32.124v-301.478c0-11.789-9.54-21.333-21.333-21.333zM448 450.227c-57.813 0-106.667 47.334-106.667 103.377v129.062c0 11.793 9.54 21.333 21.333 21.333s21.333-9.54 21.333-21.333v-129.062c0-32.917 29.312-60.71 64-60.71s64 27.793 64 60.71v317.103c0 21.419-19.938 40.188-42.667 40.188s-42.667-18.79-42.667-40.209v-60.019c0-11.793-9.54-21.333-21.333-21.333s-21.333 9.54-21.333 21.333v60.019c0 44.915 39.083 82.876 85.333 82.876s85.333-37.939 85.333-82.854v-317.103c0-56.043-48.853-103.377-106.667-103.377zM789.333 661.333h-128.333c-11.793 0-21.333 9.54-21.333 21.333v128c0 11.793 9.54 21.333 21.333 21.333s21.333-9.54 21.333-21.333v-106.667h106.999c11.793 0 21.333-9.54 21.333-21.333s-9.54-21.333-21.333-21.333zM511.189 196.71c-3.814 0-7.603 0.998-10.999 3.042l-489.856 294.541c-10.082 6.084-13.355 19.187-7.292 29.291 6.084 10.103 19.187 13.355 29.291 7.292l478.874-287.957 480.499 287.957c10.001 6.063 23.168 2.812 29.248-7.334 6.084-10.103 2.79-23.206-7.334-29.248l-491.46-294.541c-3.366-2.044-7.159-3.042-10.97-3.042z" />
<glyph unicode="&#xe62d;" d="M507.273 367.249c-21.645 0-43.273 7.582-60.126 22.707l-338.231 304.149c-8.747 7.872-9.476 21.355-1.583 30.123 7.915 8.772 21.397 9.417 30.127 1.583l338.21-304.102c17.395-15.625 45.751-15.667 63.206 0l338.21 304.102c8.666 7.876 22.208 7.228 30.127-1.583 7.876-8.772 7.168-22.251-1.626-30.127l-338.21-304.145c-16.836-15.121-38.46-22.707-60.105-22.707zM891.375 164.582c-4.834 0-9.668 1.626-13.623 4.915l-226.581 188.459c-9.084 7.543-10.291 21.001-2.79 30.042 7.625 9.084 21.082 10.249 30.042 2.79l226.581-188.459c9.084-7.543 10.291-21.001 2.79-30.042-4.25-5.082-10.291-7.706-16.418-7.706zM123.209 164.582c-6.127 0-12.207 2.624-16.418 7.71-7.539 9.041-6.31 22.498 2.752 30.042l226.581 188.459c9.105 7.543 22.519 6.293 30.042-2.79 7.543-9.041 6.31-22.498-2.752-30.042l-226.581-188.459c-3.977-3.294-8.832-4.919-13.623-4.919zM902.417 64h-781.146c-68.002 0-121.271 52.25-121.271 118.959v529.958c0 66.769 53.269 119.083 121.271 119.083h781.146c67.042 0 121.583-53.419 121.583-119.083v-529.958c0-65.583-54.541-118.959-121.583-118.959zM121.271 789.333c-44.083 0-78.605-33.562-78.605-76.416v-529.958c0-42.79 34.522-76.292 78.605-76.292h781.146c44.25 0 78.916 33.502 78.916 76.292v529.958c0 42.854-34.667 76.416-78.916 76.416h-781.146z" />
<glyph unicode="&#xe62e;" d="M507.396 367.249c-21.623 0-43.251 7.582-60.126 22.707l-338.227 304.149c-8.751 7.872-9.481 21.355-1.583 30.123 7.872 8.772 21.35 9.417 30.123 1.583l338.21-304.102c17.417-15.667 45.79-15.667 63.206 0l338.21 304.102c8.666 7.876 22.208 7.228 30.127-1.583 7.876-8.772 7.168-22.251-1.626-30.127l-338.21-304.145c-16.836-15.121-38.46-22.707-60.105-22.707zM123.354 164.582c-6.127 0-12.207 2.624-16.418 7.71-7.543 9.041-6.31 22.498 2.752 30.042l226.564 188.459c9.041 7.543 22.498 6.293 30.042-2.79 7.543-9.041 6.31-22.498-2.752-30.042l-226.564-188.459c-3.977-3.294-8.832-4.919-13.623-4.919zM899.085 64c-11.793 0-21.333 9.54-21.333 21.333s9.54 21.333 21.333 21.333c44.668 0 82.377 34.918 82.377 76.292v529.958c0 42.854-34.667 76.416-78.916 76.416h-781.15c-44.083 0-78.605-33.562-78.605-76.416v-529.958c0-42.79 34.522-76.292 78.605-76.292h404.105c11.793 0 21.333-9.54 21.333-21.333s-9.54-21.333-21.333-21.333h-404.105c-68.002 0-121.271 52.25-121.271 118.959v529.958c0 66.769 53.274 119.083 121.271 119.083h781.146c67.042 0 121.583-53.419 121.583-119.083v-529.958c0-65.583-56.081-118.959-125.039-118.959zM712.252-56.708c-124.71 0-226.189 101.457-226.189 226.21s101.478 226.21 226.189 226.21c124.749 0 226.21-101.457 226.21-226.21s-101.461-226.21-226.21-226.21zM712.252 353.041c-101.21 0-183.543-82.334-183.543-183.543s82.334-183.543 183.543-183.543 183.543 82.334 183.543 183.543-82.338 183.543-183.543 183.543zM678.835 68.834c-5.124 0-10.291 1.835-14.332 5.542l-48.917 44.373c-8.708 7.915-9.374 21.419-1.459 30.127 7.957 8.708 21.457 9.335 30.127 1.459l34.918-31.667 119.667 103.501c8.875 7.667 22.332 6.75 30.084-2.167 7.71-8.917 6.75-22.374-2.167-30.084l-133.956-115.874c-4.006-3.503-9.007-5.21-13.965-5.21z" />
<glyph unicode="&#xe62f;" d="M669.918-65.207h-314.731c-23.061 0-41.813 17.084-41.813 38.042l20.749 129.873c1.894 11.584 12.501 19.75 24.478 17.626 11.627-1.873 19.52-12.834 17.647-24.457l-19.145-118.208 311.228-0.209-19.46 118.417c-1.916 11.627 5.999 22.583 17.626 24.457 11.46 2.082 22.583-5.956 24.457-17.626l20.501-126.46c0.294-24.371-18.453-41.455-41.536-41.455zM933.918 192h-842.709c-49.958 0-90.603 40.917-90.603 91.209v585.873c0 50.982 39.791 90.918 90.603 90.918h842.709c50.876 0 90.709-39.936 90.709-90.918v-585.873c-0.004-50.291-40.713-91.209-90.709-91.209zM91.209 917.333c-26.876 0-47.936-21.188-47.936-48.252v-585.873c0-27.209 21.060-48.542 47.936-48.542h842.709c26.957 0 48.043 21.333 48.043 48.542v585.873c-0.004 27.063-21.086 48.252-48.043 48.252h-842.709zM1003.29 320h-981.291c-11.793 0-21.333 9.54-21.333 21.333s9.54 21.333 21.333 21.333h981.291c11.793 0 21.333-9.54 21.333-21.333s-9.54-21.333-21.333-21.333zM511.957 581.623c-31.125 0-56.439 25.314-56.439 56.439s25.314 56.439 56.439 56.439 56.418-25.314 56.418-56.439-25.293-56.439-56.418-56.439zM511.957 651.831c-7.582 0-13.773-6.187-13.773-13.773s6.187-13.773 13.773-13.773 13.751 6.187 13.751 13.773-6.165 13.773-13.751 13.773zM511.957 466.624c-94.46 0-171.29 76.834-171.29 171.29s76.834 171.29 171.29 171.29 171.29-76.834 171.29-171.29-76.83-171.29-171.29-171.29zM511.957 766.541c-70.916 0-128.623-57.707-128.623-128.623s57.707-128.623 128.623-128.623 128.623 57.707 128.623 128.623-57.707 128.623-128.623 128.623zM511.957 766.541c-11.793 0-21.333 9.54-21.333 21.333v43.106c0 11.793 9.54 21.333 21.333 21.333s21.333-9.54 21.333-21.333v-43.106c0-11.789-9.54-21.333-21.333-21.333zM511.957 422.332c-11.793 0-21.333 9.54-21.333 21.333v43.123c0 11.793 9.54 21.333 21.333 21.333s21.333-9.54 21.333-21.333v-43.123c0-11.789-9.54-21.333-21.333-21.333zM705.626 616h-43.123c-11.793 0-21.333 9.54-21.333 21.333s9.54 21.333 21.333 21.333h43.123c11.793 0 21.333-9.54 21.333-21.333s-9.54-21.333-21.333-21.333zM361.417 616h-43.123c-11.793 0-21.333 9.54-21.333 21.333s9.54 21.333 21.333 21.333h43.123c11.793 0 21.333-9.54 21.333-21.333s-9.54-21.333-21.333-21.333zM587.209 746.355c-3.627 0-7.292 0.917-10.667 2.854-10.21 5.897-13.709 18.957-7.791 29.146l21.585 37.355c5.918 10.227 18.957 13.666 29.124 7.812 10.21-5.897 13.709-18.957 7.791-29.146l-21.585-37.355c-3.959-6.857-11.123-10.667-18.458-10.667zM415.104 448.29c-3.627 0-7.292 0.917-10.645 2.854-10.21 5.897-13.709 18.935-7.812 29.146l21.564 37.355c5.875 10.21 18.918 13.709 29.146 7.812 10.21-5.897 13.709-18.935 7.812-29.146l-21.564-37.355c-3.959-6.831-11.123-10.667-18.5-10.667zM436.71 746.355c-7.377 0-14.541 3.831-18.5 10.667l-21.564 37.355c-5.897 10.206-2.398 23.249 7.812 29.146 10.146 5.918 23.228 2.415 29.146-7.812l21.564-37.355c5.897-10.21 2.398-23.249-7.812-29.146-3.358-1.937-7.023-2.854-10.645-2.854zM608.794 448.29c-7.334 0-14.498 3.814-18.458 10.667l-21.585 37.355c-5.918 10.189-2.415 23.249 7.791 29.146 10.167 5.897 23.168 2.458 29.124-7.812l21.585-37.355c5.918-10.189 2.415-23.249-7.791-29.146-3.375-1.937-7.044-2.854-10.667-2.854zM679.667 519.168c-3.627 0-7.292 0.917-10.667 2.854l-37.333 21.564c-10.21 5.897-13.709 18.935-7.791 29.146 5.875 10.227 18.957 13.666 29.124 7.812l37.333-21.564c10.21-5.897 13.709-18.935 7.791-29.146-3.917-6.857-11.123-10.667-18.458-10.667zM381.564 691.273c-3.627 0-7.292 0.917-10.645 2.854l-37.333 21.564c-10.21 5.892-13.709 18.935-7.812 29.141 5.918 10.227 18.918 13.73 29.146 7.812l37.333-21.564c10.21-5.897 13.709-18.935 7.812-29.146-3.959-6.852-11.127-10.662-18.5-10.662zM642.334 691.273c-7.334 0-14.541 3.814-18.458 10.667-5.918 10.21-2.415 23.249 7.791 29.146l37.333 21.564c10.167 5.875 23.249 2.458 29.124-7.812 5.918-10.21 2.415-23.249-7.791-29.146l-37.333-21.564c-3.375-1.941-7.044-2.854-10.667-2.854zM344.269 519.168c-7.377 0-14.541 3.814-18.5 10.667-5.892 10.206-2.394 23.249 7.817 29.146l37.333 21.564c10.125 5.939 23.228 2.415 29.146-7.812 5.897-10.21 2.398-23.249-7.812-29.146l-37.333-21.564c-3.358-1.937-7.023-2.854-10.65-2.854z" />
<glyph unicode="&#xe630;" d="M670.127-65.207h-314.731c-23.061 0-41.813 17.084-41.813 38.042l20.749 129.873c1.894 11.584 12.501 19.75 24.478 17.626 11.627-1.873 19.52-12.834 17.647-24.457l-19.145-118.208 311.228-0.209-19.46 118.417c-1.916 11.627 5.999 22.583 17.626 24.457 11.46 2.082 22.583-5.956 24.457-17.626l20.501-126.46c0.294-24.371-18.453-41.455-41.536-41.455zM934.084 192h-842.688c-49.937 0-90.581 40.917-90.581 91.209v585.873c-0.004 50.982 39.791 90.918 90.581 90.918h842.688c50.876 0 90.752-39.936 90.752-90.918v-585.873c-0.004-50.291-40.713-91.209-90.752-91.209zM91.396 917.333c-26.876 0-47.919-21.188-47.919-48.252v-585.873c0-27.209 21.043-48.542 47.919-48.542h842.688c26.957 0 48.085 21.333 48.085 48.542v585.873c-0.004 27.063-21.129 48.252-48.085 48.252h-842.688zM1003.499 320h-981.291c-11.793 0-21.333 9.54-21.333 21.333s9.54 21.333 21.333 21.333h981.291c11.793 0 21.333-9.54 21.333-21.333s-9.54-21.333-21.333-21.333zM596.169 447.334h-166.665c-29.687 0-53.833 24.166-53.833 53.854l-14.276 147.977c-0.102 31.731 24.043 55.876 53.709 55.876h195.477c29.666 0 53.833-24.145 53.833-53.833l-14.46-152.064c0.090-27.644-24.081-51.81-53.786-51.81zM415.104 662.374c-6.144 0-11.145-5.001-11.145-11.166l14.272-147.981c0.102-8.209 5.103-13.21 11.273-13.21h166.665c6.165 0 11.209 5.001 11.209 11.166l14.46 152.064c-0.085 4.126-5.082 9.126-11.251 9.126h-195.482zM578.458 666.769c-11.793 0-21.333 9.54-21.333 21.333v61.107c0 22.31-19.874 40.457-44.292 40.457s-44.271-18.146-44.271-40.457v-61.103c0-11.793-9.54-21.333-21.333-21.333s-21.333 9.54-21.333 21.333v61.103c0 45.833 39.002 83.123 86.938 83.123 47.957 0 86.959-37.291 86.959-83.123v-61.103c0-11.793-9.54-21.338-21.333-21.338zM512.832 520.418c-11.793 0-21.333 9.54-21.333 21.333v34.436c0 11.793 9.54 21.333 21.333 21.333s21.333-9.54 21.333-21.333v-34.436c0-11.793-9.54-21.333-21.333-21.333z" />
</font>
</defs>
</svg>
